<svg xmlns="http://www.w3.org/2000/svg" xmlns:xlink="http://www.w3.org/1999/xlink" width="137.262" height="50.701" viewBox="0 0 137.262 50.701">
  <defs>
    <clipPath id="clip-path">
      <rect id="長方形_545" data-name="長方形 545" width="65.465" height="50.701" fill="none" stroke="#fff" stroke-width="1.5"/>
    </clipPath>
  </defs>
  <g id="click-pc" transform="translate(-1604.445 -5406.8)">
    <text id="Click" transform="translate(1686.707 5453.15)" fill="#fff" font-size="24" font-family="YuGo-Medium, YuGothic" font-weight="500"><tspan x="0" y="0">Click</tspan></text>
    <g id="グループ_580" data-name="グループ 580" transform="translate(1604.445 5406.8)">
      <g id="グループ_579" data-name="グループ 579" clip-path="url(#clip-path)">
        <path id="パス_446" data-name="パス 446" d="M162.471,150.565a1.322,1.322,0,0,1-.662-.176,5.5,5.5,0,0,0-2.8-.678,16.87,16.87,0,0,0-3.075.383,14.661,14.661,0,0,1-2.6.336,3.986,3.986,0,0,1-1.456-.242l-14.015-3.647a3.83,3.83,0,0,1-2.738-4.634l.138-.543a3.785,3.785,0,0,1,4.614-2.736l3.284.816L125,121.513a4.1,4.1,0,0,1-.067-5.775,4.043,4.043,0,0,1,2.863-1.221h.039a4.047,4.047,0,0,1,2.856,1.17l10.12,9.962a4.049,4.049,0,0,1,4-3.7h.035a4.076,4.076,0,0,1,1.385.241,4.076,4.076,0,0,1,1.154-2.988,4.023,4.023,0,0,1,2.866-1.221h.035a4.05,4.05,0,0,1,2.125.6,4.065,4.065,0,0,1,1.149-2.621,4.016,4.016,0,0,1,2.863-1.217h.035a4.048,4.048,0,0,1,2.857,1.17l.01.01,9.053,9.262a12.049,12.049,0,0,1,3.463,5.936,26.029,26.029,0,0,1,.719,5.57c.035.7.065,1.3.128,1.774a2.239,2.239,0,0,0,.165.683l1.251.268-9.821,10.077A2.781,2.781,0,0,1,162.471,150.565Zm-3.459-2.354a6.977,6.977,0,0,1,3.484.843,3.416,3.416,0,0,0,.72-.615l.012-.012,8.327-8.544a2.85,2.85,0,0,1-.283-.839,17.206,17.206,0,0,1-.2-2.286c-.146-2.948-.367-7.4-3.715-10.491l-.028-.027-9.061-9.27a2.556,2.556,0,0,0-1.8-.734h-.022a2.526,2.526,0,0,0-1.8.764,2.6,2.6,0,0,0,.046,3.66h0l-1.052,1.069-1.54-1.517a2.55,2.55,0,0,0-1.8-.735h-.022a2.533,2.533,0,0,0-1.805.768,2.6,2.6,0,0,0,.042,3.656h0l-1.052,1.069h0l-.8-.786a2.556,2.556,0,0,0-1.8-.738h-.022a2.533,2.533,0,0,0-1.805.768,2.6,2.6,0,0,0,.05,3.656l-1.052,1.069-12.38-12.187a2.556,2.556,0,0,0-1.8-.739h-.023a2.551,2.551,0,0,0-1.805.768,2.6,2.6,0,0,0,.046,3.66l22.051,21.775-8.6-2.138a2.285,2.285,0,0,0-2.789,1.655l-.137.54a2.326,2.326,0,0,0,1.661,2.814l14.108,3.671.046.019a2.489,2.489,0,0,0,.94.151,13.685,13.685,0,0,0,2.325-.311A18.282,18.282,0,0,1,159.012,148.211Z" transform="translate(-108.148 -100.1)" fill="#fff"/>
        <path id="パス_447" data-name="パス 447" d="M127.839,114.516a4.047,4.047,0,0,1,2.856,1.17l10.12,9.962a4.049,4.049,0,0,1,4-3.7h.035a4.077,4.077,0,0,1,1.385.241,4.076,4.076,0,0,1,1.154-2.988,4.023,4.023,0,0,1,2.866-1.221h.035a4.05,4.05,0,0,1,2.125.6,4.064,4.064,0,0,1,1.149-2.621,4.016,4.016,0,0,1,2.863-1.217h.035a4.048,4.048,0,0,1,2.857,1.17l.01.01,9.053,9.262a12.049,12.049,0,0,1,3.463,5.936,26.029,26.029,0,0,1,.719,5.57c.035.7.065,1.3.128,1.774a2.182,2.182,0,0,0,.167.688.75.75,0,0,1,.3,1.235l-8.873,9.1a2.78,2.78,0,0,1-1.819,1.078,1.322,1.322,0,0,1-.662-.176,5.5,5.5,0,0,0-2.8-.678,16.87,16.87,0,0,0-3.075.383,14.657,14.657,0,0,1-2.6.336,3.986,3.986,0,0,1-1.456-.242l-14.015-3.647a3.83,3.83,0,0,1-2.739-4.634l.138-.543a3.785,3.785,0,0,1,4.615-2.736l3.283.816L125,121.513a4.1,4.1,0,0,1-.067-5.775,4.043,4.043,0,0,1,2.863-1.221Zm14.184,14.426-12.38-12.187a2.556,2.556,0,0,0-1.8-.739h-.023a2.551,2.551,0,0,0-1.805.768,2.6,2.6,0,0,0,.046,3.66L146.162,140.3a.75.75,0,0,1-.708,1.262l-5.94-1.477-.007,0a2.27,2.27,0,0,0-.569-.073,2.294,2.294,0,0,0-2.22,1.728l-.137.54a2.326,2.326,0,0,0,1.661,2.814l14.06,3.659a.751.751,0,0,1,.094.031,2.49,2.49,0,0,0,.94.151,13.681,13.681,0,0,0,2.325-.311,18.281,18.281,0,0,1,3.352-.409,6.978,6.978,0,0,1,3.484.843,3.416,3.416,0,0,0,.72-.615l8.339-8.556a2.85,2.85,0,0,1-.283-.839,17.209,17.209,0,0,1-.2-2.286c-.146-2.948-.367-7.4-3.715-10.491l-.028-.027-9.061-9.27a2.556,2.556,0,0,0-1.8-.734h-.022a2.526,2.526,0,0,0-1.8.764,2.6,2.6,0,0,0,.046,3.66h0a.75.75,0,0,1-1.052,1.069l-1.54-1.517a2.551,2.551,0,0,0-1.8-.735h-.022a2.533,2.533,0,0,0-1.805.768,2.6,2.6,0,0,0,.042,3.656h0a.75.75,0,0,1-1.052,1.069h0l-.8-.786a2.556,2.556,0,0,0-1.8-.738h-.022a2.533,2.533,0,0,0-1.805.768,2.6,2.6,0,0,0,.05,3.656.75.75,0,1,1-1.052,1.069Z" transform="translate(-108.148 -100.1)" fill="#fff"/>
        <path id="線_43" data-name="線 43" d="M4.891,5.867-.526.534.526-.534,5.943,4.8Z" transform="translate(39.835 24.338)" fill="#fff"/>
        <path id="線_44" data-name="線 44" d="M5.417,6.083a.748.748,0,0,1-.526-.216L-.526.534A.75.75,0,0,1-.534-.526.75.75,0,0,1,.526-.534L5.943,4.8a.75.75,0,0,1-.526,1.284Z" transform="translate(39.835 24.338)" fill="#fff"/>
        <path id="線_45" data-name="線 45" d="M3.756,4.75-.526.534.526-.534,4.809,3.681Z" transform="translate(45.644 20.659)" fill="#fff"/>
        <path id="線_46" data-name="線 46" d="M4.282,4.966a.748.748,0,0,1-.526-.216L-.526.534A.75.75,0,0,1-.534-.526.75.75,0,0,1,.526-.534L4.809,3.681a.75.75,0,0,1-.526,1.284Z" transform="translate(45.644 20.659)" fill="#fff"/>
        <path id="線_47" data-name="線 47" d="M5.334,6.3-.526.534.526-.534,6.387,5.235Z" transform="translate(34.757 28.657)" fill="#fff"/>
        <path id="線_48" data-name="線 48" d="M5.861,6.519A.748.748,0,0,1,5.334,6.3L-.526.534A.75.75,0,0,1-.534-.526.75.75,0,0,1,.526-.534L6.387,5.235a.75.75,0,0,1-.526,1.284Z" transform="translate(34.757 28.657)" fill="#fff"/>
        <path id="線_49" data-name="線 49" d="M4.1,4.854a.748.748,0,0,1-.53-.22L-.53.53A.75.75,0,0,1-.53-.53.75.75,0,0,1,.53-.53l4.1,4.1a.75.75,0,0,1-.53,1.28Z" transform="translate(8.253 7.837)" fill="#fff"/>
        <path id="線_50" data-name="線 50" d="M5.606,2.252a.751.751,0,0,1-.195-.026L-.194.724a.75.75,0,0,1-.53-.919.75.75,0,0,1,.919-.53L5.8.778a.75.75,0,0,1-.194,1.475Z" transform="translate(1.316 19.373)" fill="#fff"/>
        <path id="線_51" data-name="線 51" d="M1.5,6.356A.75.75,0,0,1,.778,5.8L-.724.194a.75.75,0,0,1,.53-.919.75.75,0,0,1,.919.53l1.5,5.606a.751.751,0,0,1-.725.944Z" transform="translate(20.029 1.316)" fill="#fff"/>
      </g>
    </g>
  </g>
</svg>
