<svg xmlns="http://www.w3.org/2000/svg" xmlns:xlink="http://www.w3.org/1999/xlink" width="123.281" height="95.478" viewBox="0 0 123.281 95.478">
  <defs>
    <clipPath id="clip-path">
      <rect id="長方形_545" data-name="長方形 545" width="123.281" height="95.478" fill="none" stroke="#fff" stroke-width="1.5"/>
    </clipPath>
  </defs>
  <g id="click-smp" opacity="0.499">
    <g id="グループ_579" data-name="グループ 579" clip-path="url(#clip-path)">
      <path id="パス_446" data-name="パス 446" d="M195.976,181.076a1.836,1.836,0,0,1-.92-.244,11,11,0,0,0-5.594-1.363,32.268,32.268,0,0,0-5.913.733,27.159,27.159,0,0,1-4.777.622,6.825,6.825,0,0,1-2.537-.424l-26.429-6.878a6.549,6.549,0,0,1-4.682-7.924l.26-1.021a6.466,6.466,0,0,1,7.885-4.674l8.529,2.12-35.914-35.464a7.064,7.064,0,0,1-.117-9.942,6.956,6.956,0,0,1,4.926-2.1h.065a6.963,6.963,0,0,1,4.914,2.012l20.214,19.9a7.012,7.012,0,0,1,1.923-5.815,7,7,0,0,1,8.384-1.227,7.037,7.037,0,0,1,1.863-6.247,6.917,6.917,0,0,1,4.929-2.1h.06a6.952,6.952,0,0,1,4.712,1.819,7.026,7.026,0,0,1,1.927-5.833,6.9,6.9,0,0,1,4.922-2.092h.061a6.965,6.965,0,0,1,4.915,2.012l.01.01,17.06,17.453a22.044,22.044,0,0,1,6.343,10.874,48.471,48.471,0,0,1,1.333,10.351,31.335,31.335,0,0,0,.343,3.99c.147.738.355,1.172.586,1.222l1.328.284-17.658,18.117C198.174,180.018,197.142,181.076,195.976,181.076Zm-6.513-3.108a12.461,12.461,0,0,1,6.336,1.56.34.34,0,0,0,.177.048c.534,0,1.408-.9,1.877-1.378l.023-.023L213.933,161.7a3.991,3.991,0,0,1-.734-1.785,32.058,32.058,0,0,1-.37-4.208c-.281-5.659-.7-14.211-7.209-20.21l-.028-.027-17.068-17.461a5.473,5.473,0,0,0-3.857-1.576h-.048a5.415,5.415,0,0,0-3.861,1.639,5.561,5.561,0,0,0,.1,7.827h0l-1.052,1.069h0l-2.9-2.856a5.462,5.462,0,0,0-3.855-1.574H173a5.427,5.427,0,0,0-3.868,1.647A5.569,5.569,0,0,0,169.21,132l.007.007-1.052,1.069h0l-1.5-1.481a5.472,5.472,0,0,0-3.862-1.581h-.048a5.428,5.428,0,0,0-3.868,1.646,5.556,5.556,0,0,0,.1,7.82l-1.052,1.069L134.62,117.6a5.472,5.472,0,0,0-3.862-1.581h-.048a5.464,5.464,0,0,0-3.868,1.647,5.561,5.561,0,0,0,.1,7.827L166.744,164.8,152.9,161.355a4.966,4.966,0,0,0-6.06,3.592l-.259,1.017a5.044,5.044,0,0,0,3.6,6.1l26.524,6.9.046.019a5.324,5.324,0,0,0,2.019.333,26.18,26.18,0,0,0,4.5-.6A33.914,33.914,0,0,1,189.462,177.968Z" transform="translate(-93.677 -86.706)" fill="#fff"/>
      <path id="パス_447" data-name="パス 447" d="M130.758,114.516a6.963,6.963,0,0,1,4.914,2.012l20.214,19.9a7.012,7.012,0,0,1,1.923-5.815,7,7,0,0,1,8.384-1.227,7.037,7.037,0,0,1,1.863-6.247,6.917,6.917,0,0,1,4.929-2.1h.06a6.952,6.952,0,0,1,4.712,1.819,7.026,7.026,0,0,1,1.927-5.833,6.993,6.993,0,0,1,9.9-.08l.01.01,17.06,17.453a22.044,22.044,0,0,1,6.343,10.874,48.47,48.47,0,0,1,1.333,10.351,31.338,31.338,0,0,0,.343,3.99c.147.738.355,1.172.586,1.222a.75.75,0,0,1,.38,1.257l-16.71,17.145c-.753.773-1.784,1.831-2.951,1.831a1.836,1.836,0,0,1-.92-.244,11,11,0,0,0-5.594-1.363,32.266,32.266,0,0,0-5.913.733,27.153,27.153,0,0,1-4.777.622,6.825,6.825,0,0,1-2.537-.424l-26.429-6.878a6.549,6.549,0,0,1-4.682-7.924l.26-1.02a6.466,6.466,0,0,1,7.885-4.674l8.529,2.12-35.914-35.464a7.064,7.064,0,0,1-.117-9.942,6.956,6.956,0,0,1,4.926-2.1Zm27.175,26.031L134.62,117.6a5.471,5.471,0,0,0-3.862-1.581h-.048a5.464,5.464,0,0,0-3.868,1.647,5.561,5.561,0,0,0,.1,7.827L164.8,162.877a.75.75,0,0,1-.708,1.262l-11.185-2.781-.007,0a4.966,4.966,0,0,0-6.06,3.592l-.259,1.017a5.044,5.044,0,0,0,3.6,6.1l26.476,6.89a.753.753,0,0,1,.094.031,5.325,5.325,0,0,0,2.019.333,26.175,26.175,0,0,0,4.5-.6,33.913,33.913,0,0,1,6.189-.758,12.461,12.461,0,0,1,6.336,1.56.34.34,0,0,0,.177.048c.534,0,1.408-.9,1.877-1.378l.023-.023L213.933,161.7a3.991,3.991,0,0,1-.734-1.785,32.061,32.061,0,0,1-.37-4.208c-.281-5.659-.7-14.211-7.209-20.21l-.028-.027-17.068-17.461a5.473,5.473,0,0,0-3.857-1.576h-.048a5.415,5.415,0,0,0-3.861,1.639,5.561,5.561,0,0,0,.1,7.827h0a.75.75,0,0,1-1.052,1.069h0l-2.9-2.856a5.462,5.462,0,0,0-3.855-1.574H173a5.428,5.428,0,0,0-3.868,1.647A5.569,5.569,0,0,0,169.21,132l.007.007a.75.75,0,0,1-1.052,1.069h0l-1.5-1.481a5.472,5.472,0,0,0-3.862-1.581h-.048a5.428,5.428,0,0,0-3.868,1.646,5.556,5.556,0,0,0,.1,7.82.75.75,0,0,1-1.052,1.069Z" transform="translate(-93.677 -86.706)" fill="#fff"/>
      <path id="線_43" data-name="線 43" d="M9.675,10.577-.526.534.526-.534l10.2,10.043Z" transform="translate(75.014 45.833)" fill="#fff"/>
      <path id="線_44" data-name="線 44" d="M10.2,10.793a.748.748,0,0,1-.526-.216L-.526.534A.75.75,0,0,1-.534-.526.75.75,0,0,1,.526-.534l10.2,10.043a.75.75,0,0,1-.526,1.284Z" transform="translate(75.014 45.833)" fill="#fff"/>
      <path id="線_45" data-name="線 45" d="M7.538,8.473-.526.534.526-.534,8.59,7.4Z" transform="translate(85.955 38.904)" fill="#fff"/>
      <path id="線_46" data-name="線 46" d="M8.064,8.689a.748.748,0,0,1-.526-.216L-.526.534A.75.75,0,0,1-.534-.526.75.75,0,0,1,.526-.534L8.59,7.4a.75.75,0,0,1-.526,1.284Z" transform="translate(85.955 38.904)" fill="#fff"/>
      <path id="線_47" data-name="線 47" d="M10.51,11.4-.526.534.526-.534,11.562,10.33Z" transform="translate(65.452 53.965)" fill="#fff"/>
      <path id="線_48" data-name="線 48" d="M11.036,11.614a.748.748,0,0,1-.526-.216L-.526.534A.75.75,0,0,1-.534-.526.75.75,0,0,1,.526-.534L11.562,10.33a.75.75,0,0,1-.526,1.284Z" transform="translate(65.452 53.965)" fill="#fff"/>
      <path id="線_49" data-name="線 49" d="M7.728,8.478a.748.748,0,0,1-.53-.22L-.53.53A.75.75,0,0,1-.53-.53.75.75,0,0,1,.53-.53L8.259,7.2a.75.75,0,0,1-.53,1.28Z" transform="translate(15.542 14.758)" fill="#fff"/>
      <path id="線_50" data-name="線 50" d="M10.557,3.579a.751.751,0,0,1-.195-.026L-.194.724a.75.75,0,0,1-.53-.919.75.75,0,0,1,.919-.53L10.751,2.1a.75.75,0,0,1-.194,1.475Z" transform="translate(2.478 36.482)" fill="#fff"/>
      <path id="線_51" data-name="線 51" d="M2.828,11.307a.75.75,0,0,1-.724-.556L-.724.194a.75.75,0,0,1,.53-.919.75.75,0,0,1,.919.53L3.553,10.363a.751.751,0,0,1-.725.944Z" transform="translate(37.718 2.478)" fill="#fff"/>
    </g>
  </g>
</svg>
