<svg id="レイヤー_1" data-name="レイヤー 1" xmlns="http://www.w3.org/2000/svg" viewBox="0 0 1920 1200"><defs><style>.cls-1,.cls-3,.cls-8{fill:none;}.cls-1{stroke:#ccc;}.cls-1,.cls-3,.cls-6,.cls-8{stroke-miterlimit:10;}.cls-1,.cls-3{stroke-width:118.74px;}.cls-2{fill:#ccc;}.cls-3,.cls-8{stroke:#f2c345;}.cls-4{fill:#242b2e;}.cls-5,.cls-6{fill:#f2c345;}.cls-6{stroke:#fff;stroke-width:5.15px;}.cls-7{fill:#fff;}.cls-8{stroke-linecap:round;stroke-width:4.41px;}.cls-9{opacity:0.7;}</style></defs><path class="cls-1" d="M1675.41,1016.35H438.07a171,171,0,0,1,0-342h570.09a171,171,0,1,0,0-342H0"/><polygon class="cls-2" points="1885 1016.35 1589.66 895.67 1659.74 1016.35 1589.66 1137 1885 1016.35"/><path class="cls-3" d="M267.09,845.37a171,171,0,0,1,171-171h570.09a171,171,0,1,0,0-342H0"/><path class="cls-4" d="M226.72,212.64a16,16,0,0,0-1.31-4.1,31.89,31.89,0,0,1,4.26-.09c.42,0,.65.16.65.49a6.91,6.91,0,0,0,.07,2.35l.49,2.75,2.68-.45c1.87-.33,4.16-.72,5.86-1.18.17,0,.3.13.36.36a21.71,21.71,0,0,1,.66,2.81c0,.23-.17.33-.49.36-1.51.27-3.83.63-5.47.92l-2.88.52.82,4.2,4.74-.82c2.33-.4,3.93-.76,5.14-1.08.43-.1.53,0,.56.36a17.94,17.94,0,0,1,.56,2.62.52.52,0,0,1-.49.55c-1,.13-3,.46-5.27.85l-4.52.79.75,3.64c.46,2.19,1,4.28,1.44,5.92,0,.17-.13.26-.43.36a21.52,21.52,0,0,1-3,.69c-.42,0-.62-.13-.65-.39-.23-1.21-.59-3.51-1.05-5.6l-.82-3.87-4.45.79c-2.23.39-4.06.79-5.3,1.11a.52.52,0,0,1-.76-.36c-.33-.95-.65-2.19-.91-3.24,2-.23,3.73-.49,6.09-.88l4.58-.76-.82-4.22-3.08.49c-1.8.3-4,.75-4.88,1-.32.1-.49,0-.62-.32a29.79,29.79,0,0,1-.92-3.28c1.77-.13,3.57-.36,5.83-.72l3-.46Z"/><path class="cls-4" d="M255.56,217.55a.58.58,0,0,1,.85.23,17.43,17.43,0,0,1,2.82,4.84,2.46,2.46,0,0,1,.13.5c0,.19-.13.29-.39.45a14.38,14.38,0,0,1-2.1,1c-.46.16-.65,0-.82-.46a19.23,19.23,0,0,0-3.08-5.27C254.09,218.24,254.87,217.88,255.56,217.55Zm18,.42c.26.2.42.36.42.56s-.09.36-.36.59a4.53,4.53,0,0,0-1,1.67,40.15,40.15,0,0,1-4.94,8.71,26.22,26.22,0,0,1-6.75,6.32,1.38,1.38,0,0,1-.78.36.74.74,0,0,1-.53-.23,7.46,7.46,0,0,0-2.78-1.37c3.93-2.59,5.89-4.26,7.86-6.81a34.15,34.15,0,0,0,4.42-7.9,11.93,11.93,0,0,0,.75-3.47A16,16,0,0,1,273.54,218Zm-11.36-2c.36-.17.58-.13.85.26a19.16,19.16,0,0,1,2.52,4.78c.16.49.1.65-.33.88a13.54,13.54,0,0,1-2.26,1c-.36.13-.49,0-.65-.49a22.63,22.63,0,0,0-2.75-5.24C260.87,216.57,261.62,216.21,262.18,216Z"/><path class="cls-4" d="M302.05,213.23a3.1,3.1,0,0,0,1.64-.4.65.65,0,0,1,.43-.13,1,1,0,0,1,.52.2,14.59,14.59,0,0,1,2.23,1.77,1.06,1.06,0,0,1,.42.75,1,1,0,0,1-.39.69,3.87,3.87,0,0,0-1.08,1.41,44.93,44.93,0,0,1-6.49,10.11,41.41,41.41,0,0,1-9.95,8.16.89.89,0,0,1-.52.16,1.16,1.16,0,0,1-.76-.36,8.6,8.6,0,0,0-3.11-1.51,37.48,37.48,0,0,0,10.91-8.35,33.57,33.57,0,0,0,6.06-9.29l-7.93.22a45.17,45.17,0,0,1-6.19,6.72,1,1,0,0,1-.69.36.82.82,0,0,1-.49-.2,8.91,8.91,0,0,0-3.14-1.41,38.74,38.74,0,0,0,8.81-9.72,14.06,14.06,0,0,0,1.93-4.42,16,16,0,0,1,3.83,1.73.69.69,0,0,1,.33.56.66.66,0,0,1-.36.56,3.31,3.31,0,0,0-.82.88c-.36.56-.69,1.05-1.08,1.64Z"/><path class="cls-4" d="M329.59,221.05a26.7,26.7,0,0,1-4.62,5,36.63,36.63,0,0,1-6.19,4.59,1.32,1.32,0,0,1-.75.29.67.67,0,0,1-.56-.32,7.38,7.38,0,0,0-2.68-1.94,38.2,38.2,0,0,0,7.62-5.17,31.09,31.09,0,0,0,4.82-5.07l-5.73,0c-1.71,0-3.54.06-5.24.16-.3,0-.43-.19-.46-.56a28.06,28.06,0,0,1-.26-3.17c2,.13,3.89.16,5.86.16h7.79l-.13-2.91a16.45,16.45,0,0,0-.52-3.87,30.18,30.18,0,0,1,4.12.36c.33.07.43.2.43.4a2.11,2.11,0,0,1-.13.49,9.19,9.19,0,0,0-.13,3l.1,2.49h2.84c2.3,0,3.93-.07,6.36-.16.33,0,.49.16.49.39,0,.92,0,1.93,0,2.85a.42.42,0,0,1-.46.46c-2.39-.1-4.26-.17-6.29-.17h-2.65l.59,12.31a3.46,3.46,0,0,1-1.57,3.48,10.11,10.11,0,0,1-4.52,1.14c-.62,0-.85-.13-1-.55a6.59,6.59,0,0,0-2.29-2.92,23.12,23.12,0,0,0,4.62-.33c.75-.16,1-.49,1-1.93Z"/><path class="cls-4" d="M356.3,215.22c-2.13,0-4,.1-5.4.17-.43,0-.56-.2-.63-.66-.09-.65-.22-2.36-.29-3.31a55.68,55.68,0,0,0,6.29.23H368a3.16,3.16,0,0,0,1.8-.32.9.9,0,0,1,.49-.13,1.54,1.54,0,0,1,.62.16,9.9,9.9,0,0,1,2.39,2.16.8.8,0,0,1,.23.56,1.13,1.13,0,0,1-.46.82,3.9,3.9,0,0,0-.75,1.27,38.71,38.71,0,0,1-6.35,10.65,37.16,37.16,0,0,1-9.3,7.79,1.57,1.57,0,0,1-.89.29,1.13,1.13,0,0,1-.82-.36,9.67,9.67,0,0,0-3-1.8,31.73,31.73,0,0,0,10.71-8.18,27.66,27.66,0,0,0,5.53-9.34Z"/><path class="cls-5" d="M216.86,182.15a4.77,4.77,0,0,1,5-4.51c2.93,0,4.87,1.58,4.87,4.4,0,1.82-.79,3.19-3.29,5.52-2.24,2-3.31,3.2-4,4.53h7.33v2.14H216.71v-1.91a20.67,20.67,0,0,1,4.66-6c2.13-2.05,2.6-2.9,2.6-4.25a2,2,0,0,0-2.13-2.27c-1.35,0-2.18,1-2.31,2.95Z"/><path class="cls-5" d="M239.23,186c0,6-1.83,8.51-5.17,8.51s-5.11-2.42-5.11-8.47,1.86-8.42,5.15-8.42S239.23,180,239.23,186Zm-7.52,0c0,4.81.66,6.37,2.35,6.37s2.42-1.58,2.42-6.37-.67-6.29-2.38-6.29S231.71,181.21,231.71,186Z"/><path class="cls-5" d="M241.35,182.15a4.77,4.77,0,0,1,5-4.51c2.93,0,4.88,1.58,4.88,4.4,0,1.82-.79,3.19-3.3,5.52-2.24,2-3.31,3.2-4,4.53h7.33v2.14H241.2v-1.91a20.67,20.67,0,0,1,4.66-6c2.14-2.05,2.61-2.9,2.61-4.25a2,2,0,0,0-2.14-2.27c-1.35,0-2.18,1-2.31,2.95Z"/><path class="cls-5" d="M260.14,192.15h3.05v2.08h-8.81v-2.08h3.21V180.52a12.05,12.05,0,0,1-3,1.46l-.43-2.25a12.1,12.1,0,0,0,3.81-1.92h2.18Z"/><path class="cls-5" d="M269.22,194.23h-3.06v-2.95h3.06Z"/><path class="cls-5" d="M279.05,181.27c-.26-1.2-.94-1.6-1.71-1.6-1.95,0-2.86,2-2.95,5.77a3.75,3.75,0,0,1,3.33-1.92c2.53,0,4.26,2,4.26,5.28,0,3.52-2.05,5.73-5,5.73-3.14,0-5.24-2.31-5.24-7.83,0-6.45,2.18-9.06,5.64-9.06a4.2,4.2,0,0,1,4.26,2.67ZM277,192.47c1.49,0,2.31-1.22,2.31-3.59,0-2.18-.77-3.31-2.21-3.31a3.1,3.1,0,0,0-2.67,2.07C274.41,191.08,275.44,192.47,277,192.47Z"/><path class="cls-6" d="M64.22,149.55A68.3,68.3,0,0,0,86.78,261.07c3.64,5.73,17.29,28.62,26.41,63,9.12-36.36,24.29-59.89,26.93-63.81a68.25,68.25,0,1,0-75.9-110.67Z"/><path class="cls-7" d="M101.78,235.69c8.55-2.66,24.32-11.54,37-19.24,8.1-4.93,4.06-17.53-5.39-16.72s-16.88,1.55-22.95-1.48c-2.38-1.19-4.75-4.75-7.13-8.32l-6.68-12.39L72.81,190.91s4.44,8.79,6.56,13.92c6.12,14.79,2.56,13.6,7.31,24.29C89.49,235.44,96.18,237.43,101.78,235.69Z"/><circle class="cls-7" cx="137.74" cy="178.06" r="9.5"/><path class="cls-4" d="M1133.76,215.65c-2.13,0-4,.1-5.4.16-.43,0-.56-.19-.62-.65-.1-.66-.23-2.36-.3-3.31a58.22,58.22,0,0,0,6.29.23h11.69a3.15,3.15,0,0,0,1.8-.33,1,1,0,0,1,.56-.19.73.73,0,0,1,.55.23,12.14,12.14,0,0,1,2.23,2.25,1.15,1.15,0,0,1,.26.66.89.89,0,0,1-.33.62,4.16,4.16,0,0,0-.75,1.28,38.56,38.56,0,0,1-6.35,10.64,36.57,36.57,0,0,1-9.3,7.79,1.58,1.58,0,0,1-.89.3,1.14,1.14,0,0,1-.81-.36,9.84,9.84,0,0,0-3.05-1.8,31.65,31.65,0,0,0,10.71-8.19,27.62,27.62,0,0,0,5.53-9.33Zm22.63-6.29a3.54,3.54,0,0,1-7.08,0,3.46,3.46,0,0,1,3.54-3.5A3.49,3.49,0,0,1,1156.39,209.36Zm-5.47,0a1.93,1.93,0,1,0,1.93-1.93A1.87,1.87,0,0,0,1150.92,209.36Z"/><path class="cls-4" d="M1166.53,230.45v1.93c0,.56-.13.62-.72.66-.82,0-1.77,0-2.58,0-.56,0-.73-.1-.69-.49,0-1.71.1-4,.1-6.52v-8c0-1.77,0-3.54-.07-5.44,0-.33.13-.46.36-.46,1.74.1,3.67.1,5.86.1h7.8c2.12,0,4.61,0,6.15-.06.36,0,.46.16.43.65,0,1.6,0,3.37,0,5.3v7.83c0,2.85.1,4.45.17,6.22,0,.46-.17.56-.62.56-1,0-2,0-3,0-.39,0-.42-.07-.42-.52v-1.74Zm12.71-14.77H1166.5V227h12.74Z"/><path class="cls-4" d="M1194.23,217.58c.16-.23.33-.39.62-.33a22.84,22.84,0,0,1,6.29,3.21c.23.17.36.3.36.49a1.06,1.06,0,0,1-.13.36,13.26,13.26,0,0,1-1.44,2.49c-.17.2-.3.33-.43.33a.63.63,0,0,1-.39-.2,28.83,28.83,0,0,0-6.62-3.57C1193.31,219.05,1193.84,218.1,1194.23,217.58Zm5.3,12.15a55.23,55.23,0,0,0,9-5.67,59.5,59.5,0,0,0,9.43-9.13,16.13,16.13,0,0,0,1,3.67,1.72,1.72,0,0,1,.16.62,1,1,0,0,1-.36.75,61,61,0,0,1-8.32,7.57,76.17,76.17,0,0,1-9.79,6.15,11.16,11.16,0,0,0-1.9,1.12.74.74,0,0,1-.52.26.84.84,0,0,1-.66-.4,20.52,20.52,0,0,1-2.42-3.34A15,15,0,0,0,1199.53,229.73Zm-1.34-19.68c.23-.39.43-.46.82-.26a22.2,22.2,0,0,1,6.16,3.63.54.54,0,0,1,.26.43.75.75,0,0,1-.13.42,14.49,14.49,0,0,1-1.67,2.46.38.38,0,0,1-.33.2.85.85,0,0,1-.49-.23,31.67,31.67,0,0,0-6.35-4C1197,211.82,1197.63,210.9,1198.19,210.05Zm15-1c.16-.13.29-.09.49.07a15.26,15.26,0,0,1,3.11,3.5.34.34,0,0,1-.1.53l-1.37,1a.34.34,0,0,1-.56-.1,16.06,16.06,0,0,0-3.31-3.79Zm2.91-2.12c.2-.13.3-.1.49.06a13.9,13.9,0,0,1,3.12,3.37.38.38,0,0,1-.1.59l-1.31,1a.34.34,0,0,1-.56-.1,15.54,15.54,0,0,0-3.27-3.77Z"/><path class="cls-4" d="M1240,230.29h3.47c1.67,0,3.51,0,5.27-.13.3,0,.43.19.46.62a18.22,18.22,0,0,1,0,2.09c0,.43-.16.63-.55.59-1.71,0-3.64-.06-5.15-.06h-10.28c-2,0-3.44.06-4.81.13-.39,0-.56-.2-.62-.69a14.65,14.65,0,0,1-.17-2.65c1.9.13,3.51.13,5.6.13h3.28V222h-1.8c-1.35,0-2.53,0-4,0-.3,0-.46-.17-.53-.66s-.13-1.44-.19-2.62c1.41.13,3.14.13,4.55.13h7.27c1.47,0,3-.06,4.42-.06.39,0,.49.16.52.56a17.19,17.19,0,0,1,0,2c0,.52-.16.65-.65.62-1.28,0-2.92-.07-4.26-.07H1240Z"/><path class="cls-4" d="M1277.06,213.23a3.1,3.1,0,0,0,1.64-.4.65.65,0,0,1,.43-.13,1,1,0,0,1,.52.2,14.59,14.59,0,0,1,2.23,1.77,1.06,1.06,0,0,1,.42.75,1,1,0,0,1-.39.69,3.87,3.87,0,0,0-1.08,1.41,44.93,44.93,0,0,1-6.49,10.11,41.41,41.41,0,0,1-9.95,8.16.89.89,0,0,1-.52.16,1.16,1.16,0,0,1-.76-.36,8.68,8.68,0,0,0-3.11-1.51,37.48,37.48,0,0,0,10.91-8.35,33.33,33.33,0,0,0,6-9.29l-7.92.22a45.17,45.17,0,0,1-6.19,6.72,1,1,0,0,1-.69.36.82.82,0,0,1-.49-.2,8.91,8.91,0,0,0-3.14-1.41,38.74,38.74,0,0,0,8.81-9.72,14.06,14.06,0,0,0,1.93-4.42,16,16,0,0,1,3.83,1.73.69.69,0,0,1,.33.56.66.66,0,0,1-.36.56,3.31,3.31,0,0,0-.82.88c-.36.56-.69,1.05-1.08,1.64Z"/><path class="cls-4" d="M1302.76,217.45a45.92,45.92,0,0,1,10.41,4.45c.37.2.53.43.37.85a19.91,19.91,0,0,1-1.41,2.85c-.13.23-.26.36-.43.36a.49.49,0,0,1-.36-.16,36.37,36.37,0,0,0-8.61-4.19v7.24c0,2.12.06,4.06.13,6.41,0,.4-.13.49-.59.49a20.19,20.19,0,0,1-2.91,0c-.46,0-.63-.09-.63-.49.1-2.42.14-4.35.14-6.45V212.7a24.84,24.84,0,0,0-.33-4.84,23.64,23.64,0,0,1,4.09.52c.46.1.62.29.62.56a1.81,1.81,0,0,1-.26.75c-.23.43-.23,1.24-.23,3.08Z"/><path class="cls-4" d="M1325.38,236.9c-.32,0-.36,0-.36-.36s.2-6.94.23-14.54a28.08,28.08,0,0,1-2.52,6.68c-.2.36-.33.56-.43.56s-.19-.2-.32-.59a9.6,9.6,0,0,0-1.15-2.36,27.85,27.85,0,0,0,4.09-10.08h-.19c-2,0-2.59.06-2.79.06s-.32,0-.32-.36v-2.36c0-.32,0-.36.32-.36s.79.07,2.79.07h.42v-2a26.35,26.35,0,0,0-.23-4.32,27,27,0,0,1,3.08.23c.3.06.53.19.53.36a1.5,1.5,0,0,1-.2.65,9.6,9.6,0,0,0-.2,3v2c1.35,0,1.84-.07,2-.07.33,0,.36,0,.36.36v2.36c0,.33,0,.36-.36.36-.16,0-.62,0-1.9-.06a19,19,0,0,0,2.92,5.6,12.78,12.78,0,0,0-1.05,2.25c-.13.36-.23.53-.33.53s-.2-.17-.39-.53a18.87,18.87,0,0,1-1.31-3.6c0,8.58.19,15.59.19,16.08,0,.33,0,.36-.36.36Zm12.35-13c.29-.13.36-.13.55.16a24.64,24.64,0,0,1,2.46,5.24.54.54,0,0,1,0,.2,23.26,23.26,0,0,0,3.21-5.31,14,14,0,0,0,.56-1.47h-.49c-2.36,0-3.08.06-3.31.06s-.36,0-.36-.36V220c0-.33,0-.36.36-.36.1,0,.36,0,.88,0v-8.22c-.52,0-.75,0-.85,0-.32,0-.36,0-.36-.36V208.9c0-.36,0-.39.36-.39s.89.07,3.21.07h3.64c2.32,0,3-.07,3.24-.07s.36,0,.36.39v2.26c0,.33,0,.36-.36.36-.13,0-.56,0-1.48,0a52.31,52.31,0,0,1-1.11,8.25c2,0,2.65-.06,2.85-.06.36,0,.39,0,.39.36v2.35c0,.33,0,.36-.39.36-.2,0-.92-.06-3.27-.06h-.33c-.23.72-.46,1.41-.72,2.06a3.91,3.91,0,0,1,.62.07c.29,0,.46.19.46.39a1.81,1.81,0,0,1-.2.69,3.79,3.79,0,0,0-.13,1.47V232a3,3,0,0,0,.1,1.21c.06.13.2.16.62.16s.59-.13.76-.59a19.33,19.33,0,0,0,.19-4.06A6.88,6.88,0,0,0,1351,230c.65.26.69.26.65,1-.13,2.85-.42,3.74-1,4.42a3.5,3.5,0,0,1-2.89,1,3.65,3.65,0,0,1-2.16-.45c-.68-.46-.85-1-.85-2.53V229a26.86,26.86,0,0,1-6.48,7.33c-.36.27-.56.43-.72.43s-.33-.2-.66-.62a7.73,7.73,0,0,0-1.83-1.61,24.27,24.27,0,0,0,5.44-4.68l-1.61.75c-.42.2-.49.2-.59-.16l-.29-.92c-1.71,1-3.54,1.94-5.83,3.05a5.19,5.19,0,0,0-1.25.82.61.61,0,0,1-.42.26c-.2,0-.39-.16-.53-.43a23,23,0,0,1-.91-2.94,13.15,13.15,0,0,0,2.29-.66V214c0-3.28-.07-5-.07-5.17s0-.36.33-.36,1.08.06,2.92.06H1337c1.41,0,1.93-.06,2.13-.06s.36,0,.36.36-.07,1.31-.07,3.63v6.29c0,2.32.07,3.44.07,3.63,0,.36,0,.39-.36.39s-.72-.06-2.13-.06h-2.91v5.76c.95-.42,1.9-.88,2.84-1.37a20.76,20.76,0,0,0-1-2c-.2-.33-.1-.39.29-.56Zm-3.6-12.58v2.82h2.68v-2.82Zm2.68,5.57h-2.68v3h2.68Zm7.57-5.4v8.28h1a49,49,0,0,0,1-8.28Z"/><path class="cls-4" d="M1359,227c-2.89,0-3.87.07-4.06.07s-.33,0-.33-.36v-2.33c0-.29,0-.33.33-.33s1.17.07,4.06.07h5.24a12,12,0,0,0,1.27-2.59,24.4,24.4,0,0,1,3.21.49c.39.1.49.27.49.43a.6.6,0,0,1-.36.52,3.56,3.56,0,0,0-.95,1.15h11.79c2.88,0,3.87-.07,4.06-.07s.33,0,.33.33v2.33c0,.32,0,.36-.33.36s-1.18-.07-4.06-.07h-3a16.72,16.72,0,0,1-2.71,3.9,71.71,71.71,0,0,1,7.89,3c.16.07.26.17.26.27s-.07.19-.2.36l-1.6,1.86c-.36.4-.36.49-.69.3a47.84,47.84,0,0,0-8.22-3.6c-3.44,2.35-7.89,3.34-13.72,3.73-1,.06-1.08.1-1.47-.92a7.09,7.09,0,0,0-1.15-2c5.5-.1,9.37-.79,12.22-2.07-1.28-.32-2.66-.62-4.16-.95a3.82,3.82,0,0,1-.36.46.79.79,0,0,1-.89.26l-2.35-.52c-.3-.07-.33-.26-.2-.43l.78-1a14.89,14.89,0,0,0,1.22-1.53l.91-1.25Zm.39-15.95c-2.92,0-3.93.07-4.13.07s-.36,0-.36-.36v-2.32c0-.33,0-.37.36-.37s1.21.07,4.13.07h19.91c2.94,0,3.93-.07,4.12-.07s.36,0,.36.37v2.32c0,.33,0,.36-.36.36s-1.18-.07-4.12-.07h-5.14v2.33h2.06c3.21,0,4.35-.07,4.55-.07s.36,0,.36.36-.06.82-.06,2.43v2.65c0,1.6.06,2.19.06,2.42s0,.36-.36.36-1.34-.06-4.55-.06h-13.82c-3.21,0-4.35.06-4.55.06s-.36,0-.36-.36.07-.82.07-2.42v-2.65c0-1.61-.07-2.2-.07-2.43s0-.36.36-.36,1.34.07,4.55.07h1.8v-2.33Zm4.81,7.93v-3.14h-3.37V219Zm1.9,8c-.39.59-.78,1.15-1.21,1.7,1.9.36,3.77.76,5.6,1.22a13.12,13.12,0,0,0,2.42-2.92Zm4.88-13.62v-2.33h-3.6v2.33Zm0,2.46h-3.6V219h3.6Zm6.84,0h-3.66V219h3.66Z"/><path class="cls-4" d="M1388.86,215.88c.27-.33.36-.33.66-.17a25.64,25.64,0,0,1,4.71,3.41c.14.13.2.2.2.26s-.06.2-.2.39l-1.47,2.1c-.1.16-.16.23-.26.23s-.17-.07-.3-.2a26.65,26.65,0,0,0-4.65-3.63c-.16-.1-.26-.17-.26-.23a.82.82,0,0,1,.23-.39Zm.33,16a60.34,60.34,0,0,0,3-7.66,15.87,15.87,0,0,0,1.83,1.64c.53.39.69.56.69.85a3.19,3.19,0,0,1-.16.72c-.92,2.62-1.9,5.14-2.92,7.34a6.35,6.35,0,0,0-.49,1.31c-.06.26-.19.45-.39.45a1.51,1.51,0,0,1-.69-.26,19.55,19.55,0,0,1-2.49-1.73A16.76,16.76,0,0,0,1389.19,231.92Zm1.15-24.39c.26-.3.36-.3.62-.13a28.15,28.15,0,0,1,4.78,3.5.41.41,0,0,1,.2.3c0,.09-.07.19-.2.39l-1.51,2.06c-.23.33-.29.3-.55.1a28.9,28.9,0,0,0-4.85-3.83c-.16-.1-.23-.17-.23-.23s.07-.2.23-.39Zm9.82,16.83c-3.24,0-4.35.06-4.55.06s-.36,0-.36-.36v-2.42c0-.36,0-.39.36-.39s1.31.06,4.55.06h2.52a50.55,50.55,0,0,0,.33-5.63h-1.51c-3,0-4.06.07-4.22.07-.33,0-.36,0-.36-.36V212.9c0-.33,0-.36.36-.36.16,0,1.21.06,4.22.06h1.58v-1.9a23.46,23.46,0,0,0-.23-3.79c1.14.06,2.45.13,3.57.26.32.06.55.19.55.39a1.74,1.74,0,0,1-.23.69,4.82,4.82,0,0,0-.23,2v2.39h3c3,0,4.1-.06,4.29-.06s.36,0,.36.36-.06,1-.06,2.88v5.53c1.7,0,2.39-.06,2.55-.06.33,0,.36,0,.36.39v2.42c0,.33,0,.36-.36.36s-1.31-.06-4.52-.06h-4.94c1.77,4.22,5.24,7.27,9.89,9.2a9.12,9.12,0,0,0-1.44,2.46c-.23.55-.36.78-.59.78a2.46,2.46,0,0,1-.79-.32c-4.35-2.53-7.53-5.64-9.3-10a18.07,18.07,0,0,1-8.38,10,1.92,1.92,0,0,1-.82.36c-.23,0-.36-.23-.66-.75a6.78,6.78,0,0,0-1.66-2c5-2.55,7.62-5.57,8.74-9.79Zm10.55-3.05v-5.63h-4.26c0,2.2-.13,4-.3,5.63Z"/><path class="cls-4" d="M1430.28,219.55c-3.18,0-4.22.06-4.42.06-.36,0-.39,0-.39-.36v-2.39c0-.33,0-.36.39-.36.2,0,1.24.07,4.42.07h9.23c3.15,0,4.23-.07,4.43-.07s.36,0,.36.36v2.39c0,.33,0,.36-.36.36s-1.28-.06-4.43-.06h-2.78v4.35h4c2.68,0,3.57-.06,3.76-.06.36,0,.39,0,.39.36v2.39c0,.29,0,.32-.39.32-.19,0-1.08-.06-3.76-.06h-4v5.6a56.89,56.89,0,0,0,6.32.29c1.87,0,4.19-.13,6.35-.29a9.26,9.26,0,0,0-.62,2.36c-.13,1-.16,1-1.18,1.11-1.24.06-2.55.1-3.86.1-11.72,0-14-1.8-16.6-5.7a18.84,18.84,0,0,1-4,5.6c-.33.36-.52.56-.72.56s-.33-.2-.65-.63a7.21,7.21,0,0,0-1.9-1.7,15.48,15.48,0,0,0,5.89-10.35,15.21,15.21,0,0,0,.2-2.09c1.08.16,2.16.39,3.11.62.46.1.62.23.62.46a1,1,0,0,1-.29.62,2.62,2.62,0,0,0-.43,1,26,26,0,0,1-.59,2.59c1.18,2.29,2.36,3.8,4.91,4.68V219.55Zm13.69-9.3c3,0,4.12-.07,4.32-.07s.36,0,.36.33-.07.78-.07,1.7v1.41c0,2.91.07,3.4.07,3.6s0,.36-.36.36h-2.68c-.33,0-.36,0-.36-.36v-4h-20.73v4c0,.33,0,.36-.4.36h-2.65c-.33,0-.36,0-.36-.36s.07-.69.07-3.6v-1.11c0-1.22-.07-1.77-.07-2s0-.33.36-.33,1.28.07,4.36.07h7V210a13.64,13.64,0,0,0-.22-3.11c1.21,0,2.39.07,3.5.16.29,0,.49.14.49.33a1.5,1.5,0,0,1-.2.62,5.94,5.94,0,0,0-.13,2v.33Z"/><path class="cls-5" d="M1126.39,182.15a4.77,4.77,0,0,1,5-4.51c2.93,0,4.88,1.58,4.88,4.4,0,1.82-.8,3.19-3.3,5.52-2.24,2-3.31,3.2-4,4.53h7.33v2.14h-10.11v-1.91a20.67,20.67,0,0,1,4.66-6c2.14-2.05,2.61-2.9,2.61-4.25a2,2,0,0,0-2.14-2.27c-1.35,0-2.18,1-2.31,2.95Z"/><path class="cls-5" d="M1148.77,186c0,6-1.84,8.51-5.18,8.51s-5.11-2.42-5.11-8.47,1.86-8.42,5.16-8.42S1148.77,180,1148.77,186Zm-7.53,0c0,4.81.66,6.37,2.35,6.37s2.42-1.58,2.42-6.37-.66-6.29-2.37-6.29S1141.24,181.21,1141.24,186Z"/><path class="cls-5" d="M1150.88,182.15a4.77,4.77,0,0,1,5-4.51c2.93,0,4.88,1.58,4.88,4.4,0,1.82-.79,3.19-3.3,5.52-2.24,2-3.31,3.2-4,4.53h7.33v2.14h-10.11v-1.91a20.67,20.67,0,0,1,4.66-6c2.14-2.05,2.61-2.9,2.61-4.25a2,2,0,0,0-2.14-2.27c-1.35,0-2.18,1-2.31,2.95Z"/><path class="cls-5" d="M1169.67,192.15h3v2.08h-8.8v-2.08h3.2V180.52a12.05,12.05,0,0,1-3,1.46l-.43-2.25a12.1,12.1,0,0,0,3.81-1.92h2.18Z"/><path class="cls-5" d="M1178.75,194.23h-3.06v-2.95h3.06Z"/><path class="cls-5" d="M1191.6,190c0,2.72-2.08,4.54-5.26,4.54s-5.28-1.69-5.28-4.45c0-1.88,1-3,3.16-4.06-2-1.05-2.78-2.35-2.78-4.17,0-2.35,2-4.21,4.88-4.21s4.91,1.71,4.91,4.12c0,1.76-.94,2.93-2.86,3.72C1190.72,186.59,1191.6,187.88,1191.6,190Zm-5.76-3.16c-1.51.83-2.24,1.71-2.24,3.08a2.52,2.52,0,0,0,2.72,2.65,2.42,2.42,0,0,0,2.73-2.48c0-1.28-.62-2-2.59-3Zm1-2.12a2.93,2.93,0,0,0,1.92-2.84,2.23,2.23,0,0,0-2.39-2.27,2.16,2.16,0,0,0-2.36,2.23c0,1.11.54,1.81,2.23,2.61Z"/><path class="cls-6" d="M973.75,149.55a68.3,68.3,0,0,0,22.56,111.52c3.65,5.73,17.3,28.62,26.41,63,9.12-36.36,24.3-59.89,26.93-63.81a68.25,68.25,0,1,0-75.9-110.67Z"/><path class="cls-4" d="M541.53,554.71a18.74,18.74,0,0,1-1.94,8.35,16.35,16.35,0,0,1-5.76,6.18,2,2,0,0,1-1,.4,1,1,0,0,1-.69-.33,8.58,8.58,0,0,0-2.91-1.74c3.21-1.73,5.14-3.34,6.51-5.82,1.21-2.17,1.54-3.93,1.67-7h-6.22c-1.64,0-3.24.09-4.91.19-.3,0-.39-.19-.43-.62a20.16,20.16,0,0,1-.26-3.14c1.84.16,3.67.16,5.57.16h14.7c2.56,0,4.45-.07,6.39-.2.32,0,.36.2.36.66s0,2.09,0,2.52-.2.56-.49.56c-1.71-.07-4-.13-6.23-.13Zm-6.49-7.6c-1.5,0-2.81.06-4.65.13-.42,0-.52-.16-.55-.56-.1-.78-.13-2-.23-3.14,2.29.13,4,.16,5.43.16h6c1.83,0,3.89,0,5.53-.13.33,0,.4.2.4.62a15.89,15.89,0,0,1,0,2.39c0,.46-.07.63-.43.63-1.77-.07-3.7-.1-5.5-.1Zm14.08-5.7c.17-.1.3-.06.46.1a15.34,15.34,0,0,1,2.79,3.8.35.35,0,0,1-.17.52l-1.47.89a.35.35,0,0,1-.53-.17,15.85,15.85,0,0,0-2.94-4.09Zm3.11-1.83c.2-.13.3-.07.46.1a14.41,14.41,0,0,1,2.79,3.66.4.4,0,0,1-.17.59l-1.37.89a.36.36,0,0,1-.56-.17,15.89,15.89,0,0,0-2.91-4.06Z"/><path class="cls-4" d="M580.39,549.86c1.6,0,3.44,0,4.94-.1.4,0,.43.16.46.52a16,16,0,0,1,0,2.59c0,.43-.1.56-.55.53-1.12,0-3.12,0-4.72,0h-1.34c-.2,4.69-.92,7.44-2.52,10.09a15.44,15.44,0,0,1-7.73,6.09,2.62,2.62,0,0,1-.92.29c-.19,0-.36-.09-.62-.36a7.52,7.52,0,0,0-2.72-2c4.65-1.44,7.17-3.11,8.84-5.8,1.28-2.09,1.8-4.35,1.93-8.35h-7v1.18c0,1.93,0,3.7.1,5.44,0,.36-.2.42-.56.46a22,22,0,0,1-2.81,0c-.43,0-.63-.1-.59-.46.09-1.71.16-3.31.16-5.37v-1.25h-1c-1.77,0-4.39.1-5.41.17-.26,0-.36-.2-.39-.63a30.57,30.57,0,0,1-.23-3.17c1.38.1,3.51.16,6,.16h1V547.5a23.27,23.27,0,0,0-.39-4.81,32.54,32.54,0,0,1,4,.52c.36.07.49.23.49.46a2.41,2.41,0,0,1-.19.69c-.23.59-.23.91-.23,3.14v2.39h7l0-3.21a22.62,22.62,0,0,0-.29-4.48,30.44,30.44,0,0,1,3.83.55c.45.1.59.27.59.53a1.83,1.83,0,0,1-.14.59,9.29,9.29,0,0,0-.26,2.88v3.11Zm1.64-7.93a.36.36,0,0,1,.46.14,15.42,15.42,0,0,1,2.52,4c.09.23.06.36-.2.49l-1.34.69a.36.36,0,0,1-.56-.2,15.71,15.71,0,0,0-2.65-4.26Zm3.07-1.4c.2-.1.3-.07.46.13a13.57,13.57,0,0,1,2.52,3.83.37.37,0,0,1-.19.56l-1.31.65c-.3.13-.43,0-.53-.16a15.47,15.47,0,0,0-2.65-4.26Z"/><path class="cls-4" d="M608.54,561.81c0,2.26,0,4.19.1,6.81,0,.43-.13.56-.49.56a29.72,29.72,0,0,1-3.27,0c-.36,0-.49-.13-.46-.53,0-2.35.13-4.48.13-6.71v-7.63a56.48,56.48,0,0,1-9,6.29.91.91,0,0,1-1.17-.2,12.78,12.78,0,0,0-2.82-1.93,52.12,52.12,0,0,0,10.31-6.71,52.68,52.68,0,0,0,7-6.85,9.45,9.45,0,0,0,2.06-3.37,28.87,28.87,0,0,1,3.64,2.29.6.6,0,0,1,.26.5,1,1,0,0,1-.46.72,10.52,10.52,0,0,0-2,1.8,50.85,50.85,0,0,1-3.84,4.12Z"/><path class="cls-4" d="M627.86,545a.61.61,0,0,1,.46-.26.82.82,0,0,1,.42.16,34.48,34.48,0,0,1,6.26,4.65c.19.2.29.33.29.46a.69.69,0,0,1-.2.43c-.49.65-1.57,2-2,2.45-.16.17-.26.26-.39.26s-.26-.09-.42-.26a35.44,35.44,0,0,0-6.68-5.34C626.29,546.65,627.24,545.63,627.86,545Zm2.85,17.26a57.31,57.31,0,0,0,18.4-15,14.53,14.53,0,0,0,.92,3.83,1.78,1.78,0,0,1,.16.62c0,.3-.16.56-.52,1a53.76,53.76,0,0,1-7.54,6.94,70,70,0,0,1-9.88,6.42,11.57,11.57,0,0,0-2.2,1.5.87.87,0,0,1-.59.33.83.83,0,0,1-.55-.36,22.24,22.24,0,0,1-2.62-3.64A19.56,19.56,0,0,0,630.71,562.24Z"/><path class="cls-4" d="M663.9,549.3c-2.12,0-4,.1-5.4.17-.42,0-.56-.2-.62-.66-.1-.65-.23-2.36-.3-3.31a55.79,55.79,0,0,0,6.29.23h11.69a3.16,3.16,0,0,0,1.8-.32,1,1,0,0,1,.56-.2.75.75,0,0,1,.56.23,11.82,11.82,0,0,1,2.22,2.26,1.06,1.06,0,0,1,.26.65.89.89,0,0,1-.32.63,3.89,3.89,0,0,0-.76,1.27,38.27,38.27,0,0,1-6.35,10.64,36.65,36.65,0,0,1-9.3,7.8,1.62,1.62,0,0,1-.88.29,1.16,1.16,0,0,1-.82-.36,9.62,9.62,0,0,0-3-1.8,31.53,31.53,0,0,0,10.71-8.19,27.38,27.38,0,0,0,5.54-9.33ZM686.53,543a3.54,3.54,0,1,1-3.53-3.51A3.49,3.49,0,0,1,686.53,543Zm-5.47,0a1.94,1.94,0,1,0,1.94-1.94A1.88,1.88,0,0,0,681.06,543Z"/><path class="cls-4" d="M696.68,564.1V566c0,.55-.14.62-.72.65-.82,0-1.77,0-2.59,0-.56,0-.72-.1-.69-.49,0-1.7.1-4,.1-6.52v-8c0-1.77,0-3.54-.07-5.44,0-.32.13-.45.36-.45,1.74.09,3.67.09,5.87.09h7.79c2.13,0,4.62,0,6.16-.06.36,0,.45.16.42.65,0,1.61,0,3.38,0,5.31v7.82c0,2.85.1,4.46.16,6.23,0,.45-.16.55-.62.55-1,0-2,0-3,0-.4,0-.43-.06-.43-.52V564.1Zm12.7-14.77H696.64v11.3h12.74Z"/><path class="cls-4" d="M734.69,551.1a46.13,46.13,0,0,1,10.41,4.46.6.6,0,0,1,.36.85,18.92,18.92,0,0,1-1.41,2.85c-.13.23-.26.36-.42.36a.51.51,0,0,1-.36-.17,36.56,36.56,0,0,0-8.61-4.19v7.24c0,2.13.06,4.06.13,6.42,0,.39-.13.49-.59.49a23.71,23.71,0,0,1-2.92,0c-.46,0-.62-.1-.62-.49.1-2.43.13-4.36.13-6.45V546.36a24.89,24.89,0,0,0-.33-4.85,24.65,24.65,0,0,1,4.1.52c.45.1.62.3.62.56a1.72,1.72,0,0,1-.26.75c-.23.43-.23,1.25-.23,3.08Z"/><path class="cls-4" d="M774.66,546.16a3.18,3.18,0,0,0,1.8-.49.94.94,0,0,1,.56-.23,1.17,1.17,0,0,1,.59.26,10.72,10.72,0,0,1,2.23,2,.81.81,0,0,1,.26.59.85.85,0,0,1-.36.62,3.9,3.9,0,0,0-1,1.24,51,51,0,0,1-4.82,7.93,27.91,27.91,0,0,1,3.54,3.31.64.64,0,0,1,.2.45.63.63,0,0,1-.2.43,19.74,19.74,0,0,1-2,2.06.67.67,0,0,1-.39.17.58.58,0,0,1-.36-.2,36.65,36.65,0,0,0-3.18-3.18,39.65,39.65,0,0,1-10.45,8.19,1.77,1.77,0,0,1-.81.29,1,1,0,0,1-.63-.29,9.16,9.16,0,0,0-3.11-1.67,39.68,39.68,0,0,0,12.05-8.87,26.88,26.88,0,0,0-4.71-3.08c.72-.79,1.41-1.64,2.16-2.33a.62.62,0,0,1,.42-.23.93.93,0,0,1,.33.13,33.93,33.93,0,0,1,4.23,2.62,31.57,31.57,0,0,0,3.83-6.48l-8.12.16a39.8,39.8,0,0,1-7,7.37,1.16,1.16,0,0,1-.66.3.76.76,0,0,1-.52-.23,13.75,13.75,0,0,0-2.75-1.51A36.66,36.66,0,0,0,765,545.21a12.08,12.08,0,0,0,1.76-4,20.14,20.14,0,0,1,3.84,1.61.57.57,0,0,1,.36.52.88.88,0,0,1-.4.65,2.77,2.77,0,0,0-.68.69c-.27.46-.46.79-1,1.64Z"/><path class="cls-4" d="M805,561.81c0,2.26,0,4.19.1,6.81,0,.43-.13.56-.49.56a29.91,29.91,0,0,1-3.28,0c-.36,0-.49-.13-.46-.53,0-2.35.13-4.48.13-6.71v-7.63a56.43,56.43,0,0,1-9,6.29.9.9,0,0,1-.49.13.92.92,0,0,1-.69-.33,12.33,12.33,0,0,0-2.82-1.93,55.25,55.25,0,0,0,17.29-13.56,9.48,9.48,0,0,0,2.07-3.37,29.38,29.38,0,0,1,3.63,2.29.57.57,0,0,1,.26.5.94.94,0,0,1-.45.72,10.83,10.83,0,0,0-2,1.8A52.62,52.62,0,0,1,805,551Z"/><path class="cls-4" d="M827.6,549.3c-2.13,0-4,.1-5.4.17-.43,0-.56-.2-.62-.66-.1-.65-.23-2.36-.3-3.31a55.68,55.68,0,0,0,6.29.23h11.69a3.16,3.16,0,0,0,1.8-.32,1,1,0,0,1,.56-.2.73.73,0,0,1,.55.23,12.19,12.19,0,0,1,2.23,2.26,1.12,1.12,0,0,1,.26.65.91.91,0,0,1-.33.63,4.08,4.08,0,0,0-.75,1.27,38.27,38.27,0,0,1-6.35,10.64,36.83,36.83,0,0,1-9.3,7.8,1.65,1.65,0,0,1-.89.29,1.14,1.14,0,0,1-.81-.36,9.84,9.84,0,0,0-3.05-1.8,31.53,31.53,0,0,0,10.71-8.19,27.52,27.52,0,0,0,5.53-9.33ZM850.23,543a3.54,3.54,0,1,1-3.54-3.51A3.49,3.49,0,0,1,850.23,543Zm-5.47,0a1.93,1.93,0,1,0,1.93-1.94A1.88,1.88,0,0,0,844.76,543Z"/><path class="cls-4" d="M857.36,558.24c-3,0-4,.07-4.22.07-.36,0-.4,0-.4-.4v-2.39c0-.32,0-.36.4-.36.19,0,1.21.07,4.22.07h18.83c3,0,4-.07,4.22-.07s.36,0,.36.36v2.39c0,.36,0,.4-.36.4s-1.24-.07-4.22-.07h-4.68v6.58c0,.82,0,1.18.26,1.48s1.21.39,3,.39c1.47,0,2.33-.13,2.75-.49s.72-1.38.79-3.64a7.81,7.81,0,0,0,2.26,1c.85.17.85.17.82,1-.14,2.23-.56,3.44-1.38,4.12-1.11,1-2.49,1.31-5.89,1.31s-4.62-.29-5.28-.94-.78-1.45-.78-3.18v-7.6H864.3c-.13,3.31-.88,5.63-2.09,7.24-1.54,2.32-4.06,3.67-7.24,4.71a2.3,2.3,0,0,1-.75.2c-.3,0-.43-.2-.72-.79a8.44,8.44,0,0,0-1.61-2.19c3.44-.79,5.73-1.8,7.07-3.44a8.9,8.9,0,0,0,1.87-5.73Zm18.27-14.31c3,0,4.16-.06,4.36-.06s.36,0,.36.36-.07.78-.07,1.77v1.44c0,3,.07,3.5.07,3.7s0,.36-.36.36h-2.72c-.33,0-.36,0-.36-.36V547H856.54v4.16c0,.36,0,.39-.36.39h-2.72c-.32,0-.36,0-.36-.39,0-.2.07-.69.07-3.7v-1.18c0-1.25-.07-1.84-.07-2s0-.36.36-.36,1.31.06,4.36.06h6.94v-.33a13.18,13.18,0,0,0-.23-3.11c1.21,0,2.39.1,3.51.2.29,0,.49.16.49.3a1.68,1.68,0,0,1-.2.65,6.63,6.63,0,0,0-.13,2v.33Zm-12.47,8.71c-2.95,0-3.93.07-4.13.07s-.36,0-.36-.36v-2.46c0-.36,0-.39.36-.39s1.18.06,4.13.06h7.17c2.91,0,3.93-.06,4.12-.06s.33,0,.33.39v2.46c0,.33,0,.36-.33.36s-1.21-.07-4.12-.07Z"/><path class="cls-4" d="M904.31,549a41.4,41.4,0,0,0,1.34,9.27,27.31,27.31,0,0,0,2-3.83,15.68,15.68,0,0,0,.88-3,19.35,19.35,0,0,1,3,1.18c.33.17.49.33.49.53s-.23.42-.46.68a5,5,0,0,0-.82,1.61,37.12,37.12,0,0,1-3.73,6.65c1.18,2.52,2.68,4.09,3.5,4.09s1.15-1,1.35-4a6.4,6.4,0,0,0,1.83,1.28c.95.49.95.49.78,1.5-.52,3.51-1.7,5.11-3.7,5.11-2.25,0-4.42-2.09-6-5.14a25.78,25.78,0,0,1-5.93,4.88,2,2,0,0,1-.79.36c-.19,0-.36-.2-.68-.69a7.92,7.92,0,0,0-1.67-1.73,25.92,25.92,0,0,0,7.59-6.16A40,40,0,0,1,900.87,549H890.79v4.22h4.71c2,0,2.59-.06,2.79-.06s.39.06.39.42c-.07,1.25-.1,2.62-.17,3.61a25.74,25.74,0,0,1-.75,6.09A3.74,3.74,0,0,1,894,566a13.33,13.33,0,0,1-1.67-.07c-.75-.07-.78-.07-.95-1.08a6.81,6.81,0,0,0-.78-2.36,14.58,14.58,0,0,0,2.68.26,1.38,1.38,0,0,0,1.57-1.18,26.14,26.14,0,0,0,.5-5.27h-4.59a41.77,41.77,0,0,1-.59,5.73,24.43,24.43,0,0,1-2.55,7.67c-.23.42-.4.62-.56.62s-.36-.17-.65-.53a10.45,10.45,0,0,0-2-1.83,17.49,17.49,0,0,0,2.55-7.24,54,54,0,0,0,.46-7.92c0-4.45-.07-6.39-.07-6.58,0-.36,0-.4.4-.4.19,0,1.27.07,4.38.07h8.71v-.69a30.76,30.76,0,0,0-.26-4.62c1.25.07,2.36.1,3.54.23.33,0,.49.2.49.4a1.65,1.65,0,0,1-.16.62,11.81,11.81,0,0,0-.17,3.27v.79h4.91c3.08,0,4.16-.07,4.36-.07s.36,0,.36.4v2.49c0,.32,0,.36-.36.36s-1.28-.07-4.36-.07Zm3.83-8.09c.33-.23.43-.23.69,0a15.16,15.16,0,0,1,2.82,2.75c.19.26.19.39-.17.62l-1.57,1.18c-.2.13-.33.23-.43.23s-.16-.1-.26-.23a12.37,12.37,0,0,0-2.65-2.88c-.13-.13-.2-.2-.2-.3s.1-.16.27-.29Z"/><path class="cls-5" d="M525.57,515.8a4.79,4.79,0,0,1,5-4.51c2.93,0,4.87,1.58,4.87,4.4,0,1.82-.79,3.19-3.29,5.52-2.24,2-3.31,3.21-4,4.53h7.34v2.14H525.42V526a20.72,20.72,0,0,1,4.66-6.05c2.14-2.06,2.61-2.91,2.61-4.26a2,2,0,0,0-2.13-2.26c-1.35,0-2.18,1-2.31,3Z"/><path class="cls-5" d="M548,519.67c0,6.05-1.83,8.51-5.17,8.51s-5.11-2.42-5.11-8.47,1.86-8.42,5.15-8.42S548,513.64,548,519.67Zm-7.52,0c0,4.81.66,6.37,2.35,6.37s2.42-1.58,2.42-6.37-.67-6.28-2.38-6.28S540.43,514.86,540.43,519.69Z"/><path class="cls-5" d="M550.07,515.8a4.77,4.77,0,0,1,5-4.51c2.93,0,4.87,1.58,4.87,4.4,0,1.82-.79,3.19-3.29,5.52-2.24,2-3.31,3.21-4,4.53H560v2.14H549.92V526a20.55,20.55,0,0,1,4.66-6.05c2.13-2.06,2.61-2.91,2.61-4.26a2,2,0,0,0-2.14-2.26c-1.35,0-2.18,1-2.31,3Z"/><path class="cls-5" d="M568.85,525.81h3.06v2.07H563.1v-2.07h3.21V514.18a12.4,12.4,0,0,1-3,1.45l-.43-2.25a11.94,11.94,0,0,0,3.8-1.92h2.18Z"/><path class="cls-5" d="M577.94,527.88h-3.06v-3h3.06Z"/><path class="cls-5" d="M587.06,525.81h3.06v2.07h-8.81v-2.07h3.21V514.18a12.3,12.3,0,0,1-3,1.45l-.42-2.25a11.94,11.94,0,0,0,3.8-1.92h2.18Z"/><path class="cls-5" d="M599.31,525.81h3.06v2.07h-8.81v-2.07h3.21V514.18a12.48,12.48,0,0,1-3,1.45l-.43-2.25a12,12,0,0,0,3.81-1.92h2.18Z"/><path class="cls-6" d="M372.94,483.2A68.3,68.3,0,0,0,395.5,594.72c3.64,5.73,17.29,28.62,26.41,63,9.11-36.36,24.29-59.89,26.93-63.8a68.26,68.26,0,1,0-75.9-110.68Z"/><path class="cls-4" d="M1343.35,901.16a22.62,22.62,0,0,0-.36-4.78,24.7,24.7,0,0,1,4.06.69c.39.1.56.3.56.53a1.35,1.35,0,0,1-.14.49,7.61,7.61,0,0,0-.36,3.11v6.61c0,1.7.07,3,.1,4.13,0,.49-.19.65-.72.65h-2.62c-.46,0-.65-.16-.62-.55,0-1.15.1-3,.1-4.46Zm15.42,6.13c0,4.84-.72,8.09-2.65,10.67a16.86,16.86,0,0,1-7.2,5.14,2.15,2.15,0,0,1-.69.17,1.09,1.09,0,0,1-.79-.39,10.55,10.55,0,0,0-2.78-2c3.5-1.08,6.25-2.62,8-4.78,1.51-1.87,2.19-4.59,2.19-8.75v-6.19a23.66,23.66,0,0,0-.36-5.33,20.46,20.46,0,0,1,4.26.72.55.55,0,0,1,.46.55,1,1,0,0,1-.13.53c-.3.69-.3,1.54-.3,3.57Z"/><path class="cls-4" d="M1376.09,901.16a22.62,22.62,0,0,0-.36-4.78,24.7,24.7,0,0,1,4.06.69c.39.1.55.3.55.53a1.33,1.33,0,0,1-.13.49,7.61,7.61,0,0,0-.36,3.11v6.61c0,1.7.07,3,.1,4.13,0,.49-.19.65-.72.65h-2.62c-.46,0-.65-.16-.62-.55,0-1.15.1-3,.1-4.46Zm15.42,6.13c0,4.84-.72,8.09-2.65,10.67a16.86,16.86,0,0,1-7.2,5.14,2.15,2.15,0,0,1-.69.17,1.09,1.09,0,0,1-.79-.39,10.55,10.55,0,0,0-2.78-2c3.5-1.08,6.25-2.62,8-4.78,1.5-1.87,2.19-4.59,2.19-8.75v-6.19a23.66,23.66,0,0,0-.36-5.33,20.46,20.46,0,0,1,4.26.72.55.55,0,0,1,.46.55,1.15,1.15,0,0,1-.13.53c-.3.69-.3,1.54-.3,3.57Z"/><path class="cls-4" d="M1409.68,911.54a25.6,25.6,0,0,0-4.81.4c-.4,0-.66-.2-.76-.69a36.12,36.12,0,0,1-.49-4,41.87,41.87,0,0,0,7.07.39h10.55c2.49,0,5-.06,7.53-.1.49,0,.59.07.59.46a26.37,26.37,0,0,1,0,3.08c0,.39-.13.52-.59.49-2.46,0-4.88-.07-7.3-.07Z"/><path class="cls-4" d="M1453.26,898.91a4.82,4.82,0,0,0,2.26-.3.53.53,0,0,1,.36-.13,1.07,1.07,0,0,1,.55.26,11.71,11.71,0,0,1,2.13,2.29.68.68,0,0,1-.26,1.08,6.07,6.07,0,0,0-1.21,1.44,51.23,51.23,0,0,1-4.19,6.13,77.87,77.87,0,0,1,9.07,7.92.78.78,0,0,1,.26.46.82.82,0,0,1-.23.49,17.67,17.67,0,0,1-2.19,2.23.61.61,0,0,1-.4.2c-.16,0-.29-.1-.46-.27a59.62,59.62,0,0,0-8.51-8.12,47,47,0,0,1-11,8.65,2.17,2.17,0,0,1-.75.26.74.74,0,0,1-.56-.29,8.89,8.89,0,0,0-2.75-2.13,40.93,40.93,0,0,0,17.68-16.57l-8.45,0c-1.7,0-3.4.07-5.17.2-.26,0-.36-.2-.43-.56a19.53,19.53,0,0,1-.29-3.41c1.77.14,3.4.14,5.53.14Z"/><path class="cls-5" d="M1337.32,869.53a4.77,4.77,0,0,1,5-4.51c2.93,0,4.88,1.58,4.88,4.4,0,1.82-.8,3.19-3.3,5.52-2.24,2-3.31,3.2-4,4.53h7.33v2.14h-10.11v-1.9a20.7,20.7,0,0,1,4.66-6.06c2.14-2,2.61-2.9,2.61-4.25a2,2,0,0,0-2.14-2.27c-1.35,0-2.18,1-2.31,3Z"/><path class="cls-5" d="M1359.7,873.4c0,6.05-1.84,8.51-5.18,8.51s-5.11-2.42-5.11-8.47,1.86-8.42,5.16-8.42S1359.7,867.37,1359.7,873.4Zm-7.53,0c0,4.81.66,6.37,2.35,6.37s2.42-1.58,2.42-6.37-.66-6.29-2.37-6.29S1352.17,868.59,1352.17,873.42Z"/><path class="cls-5" d="M1361.81,869.53a4.77,4.77,0,0,1,5-4.51c2.93,0,4.88,1.58,4.88,4.4,0,1.82-.79,3.19-3.29,5.52-2.25,2-3.32,3.2-4,4.53h7.33v2.14h-10.11v-1.9a20.7,20.7,0,0,1,4.66-6.06c2.14-2,2.61-2.9,2.61-4.25a2,2,0,0,0-2.14-2.27c-1.35,0-2.18,1-2.31,3Z"/><path class="cls-5" d="M1374.06,869.53a4.77,4.77,0,0,1,5-4.51c2.93,0,4.87,1.58,4.87,4.4,0,1.82-.79,3.19-3.29,5.52-2.24,2-3.31,3.2-4,4.53H1384v2.14h-10.11v-1.9a20.7,20.7,0,0,1,4.66-6.06c2.13-2,2.6-2.9,2.6-4.25a2,2,0,0,0-2.13-2.27c-1.35,0-2.18,1-2.31,3Z"/><path class="cls-5" d="M1389.68,881.61h-3.06v-3h3.06Z"/><path class="cls-5" d="M1398.81,879.53h3v2.08h-8.8v-2.08h3.2V867.9a12.05,12.05,0,0,1-3,1.46l-.43-2.25a12.1,12.1,0,0,0,3.81-1.92h2.18Z"/><path class="cls-6" d="M1184.68,836.93a68.3,68.3,0,0,0,22.56,111.52c3.65,5.73,17.3,28.62,26.41,63,9.12-36.36,24.3-59.89,26.93-63.81a68.25,68.25,0,1,0-75.9-110.67Z"/><path class="cls-7" d="M1013.45,174.44V166l-1.27,1.27-17.6,17.6-1.28,1.27h8.41A11.75,11.75,0,0,0,1013.45,174.44Z"/><path class="cls-7" d="M1050.24,191.07v-13.3A11.75,11.75,0,0,0,1038.5,166h-20.56v8.41a16.25,16.25,0,0,1-16.23,16.23H993.3v33.59A11.76,11.76,0,0,0,1005,236h33.46c6.15,0,11.75-2.6,11.75-10.25Z"/><line class="cls-8" x1="1009.49" y1="204.55" x2="1034.86" y2="204.55"/><line class="cls-8" x1="1009.49" y1="214.47" x2="1034.86" y2="214.47"/><line class="cls-8" x1="1009.49" y1="224.38" x2="1034.86" y2="224.38"/><path class="cls-7" d="M441.14,527c12.81-1.13,15.45-7.16,11.68-12.81C446,504,431.08,500,416,504.62c-19,5.77-31.58,23.33-28.08,39.22s21.73,24.08,40.74,18.31A43.69,43.69,0,0,0,449,549.07c2-2.36,2.73-9.66-6.68-9.28C432.23,540.19,430.84,527.89,441.14,527Zm-3.26-13.77a5,5,0,1,1-1.45,3.51A5,5,0,0,1,437.88,513.21Zm-42,16.32a4.3,4.3,0,1,1,2.73,5.43A4.29,4.29,0,0,1,395.86,529.53Zm8.22,19.75a4.07,4.07,0,1,1-.16-5.76A4.07,4.07,0,0,1,404.08,549.28Zm8.2-27A4.52,4.52,0,1,1,407,514.9h0a4.52,4.52,0,0,1,5.28,7.34Zm7.85-8.57a4.75,4.75,0,1,1,5.26,4.16A4.74,4.74,0,0,1,420.13,513.66Zm14.47,35.57a6,6,0,1,1-1.77-4.26A6,6,0,0,1,434.6,549.23Z"/><path class="cls-7" d="M1252.65,855.17h-39.54v6.57h39.54Z"/><path class="cls-7" d="M1252.65,865.12h-53.89v15.15a11.57,11.57,0,0,0,1.67,6.07,14.19,14.19,0,0,0,6.62,5.44,20.53,20.53,0,0,0,8.07,1.63v-.32c4.08,8.64,13,9.34,13,16.65,0,9.47,1.38,11.23-8.36,15.41v6.12H1246v-6.12c-9.75-4.18-8.36-5.94-8.36-15.41,0-7.31,9-8,13-16.65v.32a20.53,20.53,0,0,0,8.07-1.63,14.19,14.19,0,0,0,6.62-5.44,11.57,11.57,0,0,0,1.67-6.07V865.12Zm-44.75,20.15a7,7,0,0,1-2.19-2.16,5.18,5.18,0,0,1-.77-2.84v-9h8.17V883a28.61,28.61,0,0,0,.3,4.11A13.18,13.18,0,0,1,1207.9,885.27Zm52.92-5a5.18,5.18,0,0,1-.77,2.84,7.06,7.06,0,0,1-2.19,2.16,13.23,13.23,0,0,1-5.51,1.85,28.61,28.61,0,0,0,.3-4.11V871.29h8.17Z"/><g class="cls-9"><path class="cls-7" d="M368,330.85c-.66-2.79-2.18-4.21-4.57-4.21-2.71,0-4.27,1.29-4.27,3.34,0,2.26,1,3.28,4.7,4.31l1.36.39c5.86,1.59,7.51,3.81,7.51,7.58,0,4.5-3.11,7.62-9.26,7.62-5,0-8.48-2.19-9.7-6.66l4.27-1.35c.66,3,2.61,4.63,5.33,4.63,3.37,0,4.89-1.46,4.89-3.67s-.79-3.25-5-4.44l-1.33-.4c-5.46-1.62-7.21-3.77-7.21-7.71s3-7,8.57-7c4.5,0,7.68,2.11,9,6.38Z"/><path class="cls-7" d="M392.08,349.38h-4v-3.15a6.93,6.93,0,0,1-5.89,3.61c-2.94,0-5.26-1.78-5.26-5.36V331.21h4.27v12.08c0,2,.92,3,2.55,3s3.27-1.33,4.2-3.11v-12h4.17Z"/><path class="cls-7" d="M406.71,334.72c-2.18,0-4,1.42-5.16,4.6v10.06h-4.1V331.21h3.9v4.47c1.29-3.58,3.18-4.87,5.63-4.87Z"/><path class="cls-7" d="M419,349.38h-4.93l-5.62-18.17h4.46l1.89,7.58c.63,2.48,1.06,4.57,1.65,7.08h.4c.66-2.48,1.13-4.63,1.82-7.18l1.95-7.48h4.08Z"/><path class="cls-7" d="M431,341.2c0,3.45,1.56,5.73,4.57,5.73,1.89,0,3.21-1.06,3.84-3.44l3.77,1.09c-1.12,3.48-3.61,5.26-7.64,5.26-5.43,0-8.61-3.47-8.61-9.43s3.34-9.6,8.24-9.6c4.64,0,8.11,3.38,8.11,9.53v.86Zm8.21-2.74c-.2-3-1.49-4.77-4-4.77s-4,1.85-4.17,4.77Z"/><path class="cls-7" d="M455.4,350c-1.42,4.17-3.6,5.73-7.31,5.73a14.5,14.5,0,0,1-2.25-.17l-.17-3.18a12,12,0,0,0,2.32.24c1.69,0,2.81-.9,3.44-2.82l.27-.79-6.16-17.84h4.4l2.15,7.61c.6,2.09,1,3.84,1.53,6H454c.56-2,1-3.91,1.62-6l2.09-7.55h4.13Z"/><path class="cls-7" d="M494.53,337.33c-.3,3.11-1.33,6.09-2.85,7.75,1.29,1.49,2.35,1.78,4.63,1.75l-.82,3h-1.13c-2.78,0-4-.63-5.39-2.15a9.87,9.87,0,0,1-6.79,2.18c-5.09,0-8.6-3.08-8.6-7.71,0-3.54,1.72-5.76,5.46-7.48a8.54,8.54,0,0,1-1.89-5.16c0-3.34,2.62-5.79,6.49-5.79s6.32,2.05,6.32,5.49c0,3.18-1.79,5.16-6.09,6.42a82.59,82.59,0,0,0,5.66,7.45,13.79,13.79,0,0,0,1.49-6.49Zm-17.08,4.27a5.27,5.27,0,0,0,5.56,5.3,5.86,5.86,0,0,0,4-1.33,73.81,73.81,0,0,1-6.58-8.73A4.92,4.92,0,0,0,477.45,341.6Zm8.8-12.44a2.53,2.53,0,0,0-2.61-2.68,2.75,2.75,0,0,0-2.75,2.88,7.17,7.17,0,0,0,1.59,4.1C485.33,332.5,486.25,331.21,486.25,329.16Z"/><path class="cls-7" d="M518.63,323.7c6.32,0,9.16,2.61,9.16,7.34s-3.27,7.55-9.43,7.55H514v10.79h-4.47V323.7ZM514,335.25h4.2c3.41,0,5.06-1.56,5.06-4.17s-1.49-4-4.89-4H514Z"/><path class="cls-7" d="M536.27,349.38H532.1V323.23h4.17Z"/><path class="cls-7" d="M541.1,335.78c.93-3.28,3.58-5,7.52-5,4.7,0,7,2,7,6V344a49.67,49.67,0,0,0,.29,5.36h-3.84c-.13-.8-.19-1.32-.29-2.38a6.82,6.82,0,0,1-5.73,2.81c-3.34,0-5.59-2.09-5.59-5.4s2-5.22,5.92-6a36.67,36.67,0,0,1,5.2-.53v-1c0-2.29-1-3.21-3.15-3.21a3.45,3.45,0,0,0-3.47,3.18Zm10.53,4.7a18.4,18.4,0,0,0-4.17.53c-2,.46-3,1.45-3,3.07a2.58,2.58,0,0,0,2.91,2.75,5,5,0,0,0,4.24-3Z"/><path class="cls-7" d="M564.94,334.39a7.39,7.39,0,0,1,5.95-3.58c3,0,5.2,1.95,5.2,5.46v13.11h-4.27V337.43c0-2.08-.89-3-2.52-3-1.45,0-3.11,1.19-4.23,3.07v11.92H560.9V331.21h4Z"/><path class="cls-7" d="M585.39,334.39a7.42,7.42,0,0,1,6-3.58c3,0,5.2,1.95,5.2,5.46v13.11h-4.27V337.43c0-2.08-.9-3-2.52-3-1.45,0-3.11,1.19-4.23,3.07v11.92h-4.17V331.21h4Z"/><path class="cls-7" d="M606.12,328h-4.51V323.7h4.51ZM606,349.38h-4.17V331.21H606Z"/><path class="cls-7" d="M615.32,334.39a7.39,7.39,0,0,1,5.95-3.58c3,0,5.2,1.95,5.2,5.46v13.11H622.2V337.43c0-2.08-.89-3-2.51-3-1.46,0-3.11,1.19-4.24,3.07v11.92h-4.17V331.21h4Z"/><path class="cls-7" d="M647.13,332c-1.82,0-2.49.26-3.25.92a5.3,5.3,0,0,1,1.49,3.64c0,3.78-2.94,6-7.15,6a9.28,9.28,0,0,1-2.35-.29c-.79.39-1.32,1-1.32,1.59s.43,1.12,2.52,1.32l4.1.33c4.76.46,6.29,2,6.29,4.7,0,3.18-3.21,5.53-9.14,5.53-5.26,0-8.17-1.79-8.17-4.41,0-1.58,1.32-2.81,3.34-3.54-1.65-.36-2.55-1.29-2.55-2.61s.83-2.55,2.78-3.77a5.43,5.43,0,0,1-2.58-4.8c0-3.51,3-5.83,7.12-5.83a8.49,8.49,0,0,1,3.87.86c1.19-2.15,2.61-3,5.26-3ZM636,348.32c-1.56.5-2.45,1.36-2.45,2.48,0,1.59,2,2.52,5,2.52,3.55,0,5.3-1.13,5.3-2.42s-.6-1.82-3.34-2.12ZM635,336.57c0,2.35,1.39,3.58,3.31,3.58a3.2,3.2,0,0,0,3.31-3.55,3.31,3.31,0,1,0-6.62,0Z"/></g><g class="cls-9"><path class="cls-7" d="M832.34,682.51c0,6.16-3.78,9.33-9.7,9.33s-9.8-3.08-9.8-9.33V665.7h4.47v16.74c0,4.21,2,6,5.43,6s5.43-1.78,5.43-6V665.7h4.17Z"/><path class="cls-7" d="M842.93,691.38h-4.5V665.7h4.5Z"/><path class="cls-7" d="M867.13,665.7c7.64,0,12.21,4,12.21,12.67s-5.1,13-12.81,13h-8V665.7ZM863,687.94h3.47c5,0,8.18-2.85,8.18-9.53s-3-9.27-7.94-9.27H863Z"/><path class="cls-7" d="M886.66,683.2c0,3.45,1.55,5.73,4.57,5.73,1.88,0,3.21-1.06,3.84-3.44l3.77,1.09c-1.13,3.47-3.61,5.26-7.65,5.26-5.43,0-8.6-3.47-8.6-9.43s3.34-9.6,8.24-9.6c4.63,0,8.11,3.38,8.11,9.53v.86Zm8.21-2.74c-.2-3.05-1.49-4.77-4-4.77s-4,1.85-4.17,4.77Z"/><path class="cls-7" d="M912.31,678.57c-.46-2-1.62-2.91-3.24-2.91-1.79,0-2.85.86-2.85,2,0,1.42.6,2,3.24,2.72l1.53.39c4.13,1.09,5.62,2.58,5.62,5.53,0,3.24-2.41,5.59-7.34,5.59-3.84,0-6.42-1.35-7.58-4.53l3.87-1.36a3.84,3.84,0,0,0,3.81,3c2.38,0,3.31-1,3.31-2.35,0-1.49-.63-1.89-3.51-2.72l-1.53-.43c-3.93-1.06-5.32-2.48-5.32-5.52s2.38-5.17,6.81-5.17c3.81,0,6.13,1.69,7.12,4.64Z"/><path class="cls-7" d="M925.09,670h-4.5V665.7h4.5Zm-.17,21.41h-4.17V673.21h4.17Z"/><path class="cls-7" d="M945.64,674c-1.82,0-2.48.26-3.24.92a5.3,5.3,0,0,1,1.49,3.64c0,3.78-2.95,6-7.15,6a9.28,9.28,0,0,1-2.35-.29c-.79.39-1.32,1-1.32,1.58s.43,1.13,2.51,1.33l4.11.33c4.76.46,6.28,2.05,6.28,4.7,0,3.18-3.21,5.53-9.13,5.53-5.26,0-8.18-1.79-8.18-4.4,0-1.59,1.33-2.82,3.35-3.55-1.66-.36-2.55-1.29-2.55-2.61s.83-2.55,2.78-3.77a5.41,5.41,0,0,1-2.58-4.8c0-3.51,2.94-5.83,7.11-5.83a8.5,8.5,0,0,1,3.88.86c1.19-2.15,2.61-3,5.26-3Zm-11.12,16.28c-1.55.5-2.45,1.36-2.45,2.48,0,1.59,2,2.52,5,2.52,3.54,0,5.3-1.13,5.3-2.42s-.6-1.82-3.35-2.12Zm-1.06-11.75c0,2.35,1.39,3.58,3.31,3.58a3.2,3.2,0,0,0,3.31-3.55,3.31,3.31,0,1,0-6.62,0Z"/><path class="cls-7" d="M953.52,676.39a7.42,7.42,0,0,1,6-3.58c3,0,5.2,2,5.2,5.46v13.11h-4.27v-12c0-2.08-.9-3-2.52-3-1.46,0-3.11,1.19-4.24,3.07v11.92h-4.17V673.21h4Z"/></g><g class="cls-9"><path class="cls-7" d="M466.18,1005.7c7.64,0,12.21,4,12.21,12.67s-5.1,13-12.81,13h-8V1005.7ZM462,1027.94h3.47c5,0,8.18-2.85,8.18-9.53s-3-9.27-8-9.27H462Z"/><path class="cls-7" d="M485.71,1023.21c0,3.44,1.55,5.72,4.56,5.72,1.89,0,3.22-1.06,3.84-3.44l3.78,1.09c-1.13,3.47-3.61,5.26-7.65,5.26-5.43,0-8.6-3.47-8.6-9.43s3.34-9.6,8.24-9.6c4.63,0,8.11,3.38,8.11,9.53v.87Zm8.21-2.75c-.2-3.05-1.49-4.77-4-4.77s-4,1.85-4.17,4.77Z"/><path class="cls-7" d="M510.76,1031.38h-4.93l-5.62-18.17h4.46l1.89,7.58c.63,2.48,1.06,4.57,1.66,7.08h.39c.67-2.48,1.13-4.63,1.82-7.18l2-7.48h4.07Z"/><path class="cls-7" d="M522.81,1023.21c0,3.44,1.56,5.72,4.57,5.72,1.89,0,3.21-1.06,3.84-3.44l3.77,1.09c-1.12,3.47-3.6,5.26-7.64,5.26-5.43,0-8.61-3.47-8.61-9.43s3.35-9.6,8.24-9.6c4.64,0,8.11,3.38,8.11,9.53v.87Zm8.21-2.75c-.2-3.05-1.49-4.77-4-4.77s-4,1.85-4.17,4.77Z"/><path class="cls-7" d="M543.47,1031.38H539.3v-26.15h4.17Z"/><path class="cls-7" d="M564.19,1022.28c0,5.89-3.28,9.56-8.24,9.56s-8.21-3.57-8.21-9.46,3.31-9.57,8.24-9.57S564.19,1016.39,564.19,1022.28Zm-12.18,0c0,4.2,1.26,6.52,3.94,6.52s4-2.28,4-6.52-1.26-6.49-3.94-6.49S552,1018.14,552,1022.31Z"/><path class="cls-7" d="M572.47,1015.89a6,6,0,0,1,5.09-3.08c4,0,6.92,3.15,6.92,9.37s-3.21,9.63-7.12,9.63a5.15,5.15,0,0,1-4.76-3v8.94h-4.14v-24.56h4Zm.13,9.66c.83,1.92,2.15,3,3.67,3,2.19,0,3.94-1.92,3.94-6.32s-1.62-6.22-3.71-6.22c-1.52,0-3,1-3.9,3.07Z"/><path class="cls-7" d="M592.72,1016.39c1.43-2.19,3.38-3.58,5.73-3.58a4.32,4.32,0,0,1,4.47,3.54,7,7,0,0,1,5.76-3.54c2.94,0,5,2,5,5.46v13.11h-4.17v-12c0-2-.89-3-2.51-3-1.43,0-3,1.25-3.81,3.07v11.92H599v-12c0-2.08-.79-3-2.25-3s-3,1.22-3.93,3.07v11.92h-4.11v-18.17h4Z"/><path class="cls-7" d="M621.89,1023.21c0,3.44,1.55,5.72,4.56,5.72,1.89,0,3.21-1.06,3.84-3.44l3.78,1.09c-1.13,3.47-3.61,5.26-7.65,5.26-5.43,0-8.6-3.47-8.6-9.43s3.34-9.6,8.24-9.6c4.63,0,8.11,3.38,8.11,9.53v.87Zm8.2-2.75c-.19-3.05-1.49-4.77-4-4.77s-4,1.85-4.17,4.77Z"/><path class="cls-7" d="M642.41,1016.39a7.42,7.42,0,0,1,6-3.58c3,0,5.19,2,5.19,5.46v13.11h-4.27v-12c0-2.08-.89-3-2.51-3-1.46,0-3.11,1.19-4.24,3.07v11.92h-4.17v-18.17h4Z"/><path class="cls-7" d="M663.79,1013.21h4.07v3h-4.07v10c0,1.82.73,2.61,2.25,2.61a9.26,9.26,0,0,0,2.12-.2l-.16,3a21.39,21.39,0,0,1-3.25.2c-3.44,0-5.06-1.49-5.06-4.83v-10.73H657v-3h2.72v-5l4.1-.92Z"/></g><g class="cls-9"><path class="cls-7" d="M1382.57,1031.38h-4.5V1005.7h4.5Z"/><path class="cls-7" d="M1392.3,1016.39c1.42-2.19,3.37-3.58,5.72-3.58a4.31,4.31,0,0,1,4.47,3.54c1.43-2.15,3.41-3.54,5.76-3.54,3,0,5,2,5,5.46v13.11h-4.17v-12c0-2-.9-3-2.52-3-1.42,0-3,1.25-3.81,3.07v11.92h-4.1v-12c0-2.08-.79-3-2.25-3s-3,1.22-3.94,3.07v11.92h-4.1v-18.17h4Z"/><path class="cls-7" d="M1422.49,1015.89a6,6,0,0,1,5.09-3.08c4,0,6.92,3.15,6.92,9.37s-3.21,9.63-7.11,9.63a5.15,5.15,0,0,1-4.77-3v8.94h-4.14v-24.56h4Zm.13,9.66c.83,1.92,2.15,3,3.67,3,2.19,0,3.94-1.92,3.94-6.32s-1.62-6.22-3.7-6.22c-1.53,0-3,1-3.91,3.07Z"/><path class="cls-7" d="M1448,1016.72c-2.18,0-4,1.42-5.16,4.6v10.06h-4.11v-18.17h3.91v4.47c1.29-3.58,3.18-4.87,5.63-4.87Z"/><path class="cls-7" d="M1467.11,1022.28c0,5.89-3.28,9.56-8.24,9.56s-8.21-3.57-8.21-9.46,3.31-9.57,8.24-9.57S1467.11,1016.39,1467.11,1022.28Zm-12.18,0c0,4.2,1.25,6.52,3.94,6.52s4-2.28,4-6.52-1.26-6.49-3.94-6.49S1454.93,1018.14,1454.93,1022.31Z"/><path class="cls-7" d="M1480,1031.38H1475l-5.63-18.17h4.47l1.89,7.58c.63,2.48,1.06,4.57,1.65,7.08h.4c.66-2.48,1.12-4.63,1.82-7.18l2-7.48h4.07Z"/><path class="cls-7" d="M1492,1023.21c0,3.44,1.55,5.72,4.57,5.72,1.88,0,3.21-1.06,3.84-3.44l3.77,1.09c-1.13,3.47-3.61,5.26-7.65,5.26-5.42,0-8.6-3.47-8.6-9.43s3.34-9.6,8.24-9.6c4.63,0,8.11,3.38,8.11,9.53v.87Zm8.21-2.75c-.2-3.05-1.49-4.77-4-4.77s-4,1.85-4.17,4.77Z"/><path class="cls-7" d="M1512.46,1016.39c1.42-2.19,3.37-3.58,5.72-3.58a4.31,4.31,0,0,1,4.47,3.54,7,7,0,0,1,5.76-3.54c2.94,0,5,2,5,5.46v13.11h-4.17v-12c0-2-.89-3-2.51-3-1.43,0-3,1.25-3.81,3.07v11.92h-4.1v-12c0-2.08-.8-3-2.25-3s-3,1.22-3.94,3.07v11.92h-4.11v-18.17h4Z"/><path class="cls-7" d="M1541.62,1023.21c0,3.44,1.55,5.72,4.57,5.72,1.88,0,3.21-1.06,3.84-3.44l3.77,1.09c-1.13,3.47-3.61,5.26-7.65,5.26-5.43,0-8.6-3.47-8.6-9.43s3.34-9.6,8.24-9.6c4.63,0,8.11,3.38,8.11,9.53v.87Zm8.21-2.75c-.2-3.05-1.49-4.77-4-4.77s-4,1.85-4.17,4.77Z"/><path class="cls-7" d="M1562.14,1016.39a7.42,7.42,0,0,1,6-3.58c3,0,5.19,2,5.19,5.46v13.11H1569v-12c0-2.08-.9-3-2.52-3-1.46,0-3.11,1.19-4.24,3.07v11.92h-4.17v-18.17h4Z"/><path class="cls-7" d="M1583.53,1013.21h4.07v3h-4.07v10c0,1.82.72,2.61,2.25,2.61a9.23,9.23,0,0,0,2.11-.2l-.16,3a21.26,21.26,0,0,1-3.24.2c-3.45,0-5.07-1.49-5.07-4.83v-10.73h-2.71v-3h2.71v-5l4.11-.92Z"/></g></svg>