<svg id="レイヤー_1" data-name="レイヤー 1" xmlns="http://www.w3.org/2000/svg" viewBox="0 0 1125 2436"><defs><style>.cls-1{fill:#242b2e;}.cls-2,.cls-6,.cls-9{fill:#f2c345;}.cls-3,.cls-5,.cls-8{fill:none;}.cls-3{stroke:#ccc;}.cls-3,.cls-5,.cls-6,.cls-8,.cls-9{stroke-miterlimit:10;}.cls-3,.cls-5{stroke-width:118.74px;}.cls-4{fill:#ccc;}.cls-5,.cls-8{stroke:#f2c345;}.cls-6,.cls-9{stroke:#fff;}.cls-6{stroke-width:8.18px;}.cls-7{fill:#fff;}.cls-8{stroke-linecap:round;stroke-width:7px;}.cls-9{stroke-width:8.09px;}.cls-10{opacity:0.7;}</style></defs><path class="cls-1" d="M328.87,1377.89c-.32,5.82-1,9.3-3.07,13.25a26.18,26.18,0,0,1-9.15,9.83,3.18,3.18,0,0,1-1.56.62,1.56,1.56,0,0,1-1.09-.52,13.52,13.52,0,0,0-4.62-2.75c5.09-2.76,8.16-5.31,10.34-9.26,1.92-3.43,2.44-6.23,2.65-11.17H312.5c-2.6,0-5.15.16-7.8.31-.47,0-.62-.31-.68-1a31.18,31.18,0,0,1-.41-5c2.91.26,5.82.26,8.83.26h23.34c4.05,0,7.07-.11,10.13-.32.52,0,.57.32.57,1s.06,3.33,0,4-.31.89-.77.89c-2.71-.11-6.29-.21-9.88-.21Zm-10.29-12.06c-2.39,0-4.47.11-7.38.21-.68,0-.84-.26-.89-.88-.15-1.25-.21-3.12-.36-5,3.64.21,6.29.26,8.63.26h9.56c2.91,0,6.18,0,8.78-.21.52,0,.63.31.63,1a24,24,0,0,1,0,3.79c0,.73-.11,1-.68,1-2.81-.11-5.87-.16-8.73-.16Zm22.34-9c.26-.16.47-.1.73.16a24.52,24.52,0,0,1,4.42,6,.57.57,0,0,1-.26.84l-2.34,1.4c-.36.21-.62.1-.83-.26a25.34,25.34,0,0,0-4.68-6.5Zm4.94-2.91c.31-.21.47-.1.73.16a22.83,22.83,0,0,1,4.42,5.82.63.63,0,0,1-.26.93l-2.19,1.41a.56.56,0,0,1-.88-.27,25.19,25.19,0,0,0-4.63-6.44Z"/><path class="cls-1" d="M390.56,1370.2c2.55,0,5.46,0,7.85-.16.62,0,.67.26.72.83a25.64,25.64,0,0,1,0,4.11c-.05.68-.15.88-.88.83-1.77,0-4.94,0-7.48,0h-2.13c-.31,7.43-1.46,11.8-4,16s-6.8,7.43-12.26,9.66a4.17,4.17,0,0,1-1.46.47c-.31,0-.57-.15-1-.57a12,12,0,0,0-4.32-3.12c7.38-2.29,11.39-4.94,14-9.2,2-3.32,2.85-6.91,3.06-13.25H371.64v1.87c0,3.07,0,5.87.16,8.63.05.57-.31.67-.89.73a33.34,33.34,0,0,1-4.47,0c-.67-.06-1-.16-.93-.73.16-2.71.26-5.25.26-8.53v-2h-1.56c-2.81,0-7,.16-8.58.26-.41,0-.57-.31-.62-1a45.25,45.25,0,0,1-.36-5c2.18.16,5.56.26,9.56.26h1.56v-3.79a36.07,36.07,0,0,0-.62-7.64,51.2,51.2,0,0,1,6.34.83c.57.1.78.36.78.73a3.5,3.5,0,0,1-.32,1.09c-.36.93-.36,1.45-.36,5v3.79h11.17l.06-5.09a35,35,0,0,0-.47-7.12,49.7,49.7,0,0,1,6.08.88c.73.16.93.42.93.83a2.91,2.91,0,0,1-.2.94,14.07,14.07,0,0,0-.42,4.57v4.94Zm2.6-12.58a.56.56,0,0,1,.73.21,24.23,24.23,0,0,1,4,6.29c.15.36.1.57-.31.78l-2.14,1.09c-.41.21-.67.1-.88-.31a24.66,24.66,0,0,0-4.21-6.76Zm4.88-2.23c.32-.16.47-.11.73.2a22.11,22.11,0,0,1,4,6.08.59.59,0,0,1-.31.89l-2.08,1c-.47.21-.67.05-.83-.26a25,25,0,0,0-4.21-6.76Z"/><path class="cls-1" d="M435.26,1389.17c0,3.58.05,6.65.15,10.81.06.67-.2.88-.78.88a40.85,40.85,0,0,1-5.19,0c-.57,0-.78-.21-.73-.83.05-3.74.21-7.12.21-10.65v-12.11a91,91,0,0,1-14.3,10,1.48,1.48,0,0,1-1.87-.32,19.57,19.57,0,0,0-4.46-3.06,83.43,83.43,0,0,0,16.37-10.66,85,85,0,0,0,11.07-10.86A15.17,15.17,0,0,0,439,1357a45.45,45.45,0,0,1,5.77,3.64.91.91,0,0,1,.41.78,1.5,1.5,0,0,1-.72,1.14,16.66,16.66,0,0,0-3.12,2.86,83.7,83.7,0,0,1-6.08,6.55Z"/><path class="cls-1" d="M465.92,1362.46a1,1,0,0,1,.73-.42,1.35,1.35,0,0,1,.68.26,53.8,53.8,0,0,1,9.92,7.38c.32.31.47.52.47.73a1.11,1.11,0,0,1-.31.67c-.78,1-2.49,3.12-3.22,3.9-.26.26-.42.42-.63.42s-.41-.16-.67-.42a54.93,54.93,0,0,0-10.6-8.47C463.43,1365.11,464.94,1363.49,465.92,1362.46Zm4.53,27.38a76.48,76.48,0,0,0,15-9.66c6.34-5.15,9.83-8.47,14.24-14.14a23.26,23.26,0,0,0,1.46,6.08,2.7,2.7,0,0,1,.26,1c0,.47-.26.88-.83,1.56a85.57,85.57,0,0,1-12,11,112.76,112.76,0,0,1-15.69,10.18,17.79,17.79,0,0,0-3.48,2.39,1.43,1.43,0,0,1-.94.52,1.31,1.31,0,0,1-.88-.57,36,36,0,0,1-4.16-5.77A31.24,31.24,0,0,0,470.45,1389.84Z"/><path class="cls-1" d="M107.35,1439.32c-3.38,0-6.34.15-8.57.26-.68.05-.89-.32-1-1-.16-1-.36-3.75-.47-5.25a91.26,91.26,0,0,0,10,.36h18.55a4.92,4.92,0,0,0,2.86-.52,1.65,1.65,0,0,1,.89-.31,1.21,1.21,0,0,1,.88.36,19,19,0,0,1,3.53,3.59,1.75,1.75,0,0,1,.42,1,1.42,1.42,0,0,1-.52,1,6.29,6.29,0,0,0-1.2,2,60.8,60.8,0,0,1-10.08,16.89,58.09,58.09,0,0,1-14.76,12.37,2.52,2.52,0,0,1-1.4.47,1.83,1.83,0,0,1-1.3-.57,15.41,15.41,0,0,0-4.83-2.86c7.58-3.85,12.21-7.43,17-13a43.77,43.77,0,0,0,8.78-14.81Zm35.91-10a5.61,5.61,0,0,1-11.22,0,5.47,5.47,0,0,1,5.61-5.56A5.54,5.54,0,0,1,143.26,1429.34Zm-8.68,0a3.07,3.07,0,1,0,3.07-3.07A3,3,0,0,0,134.58,1429.34Z"/><path class="cls-1" d="M159.38,1462.81v3.06c0,.89-.21,1-1.14,1-1.3,0-2.81,0-4.11,0-.88-.05-1.14-.15-1.09-.78.05-2.7.15-6.39.15-10.34v-12.73c0-2.81.06-5.62-.1-8.63,0-.52.21-.73.57-.73,2.76.16,5.82.16,9.3.16h12.37c3.38,0,7.33,0,9.77-.11.58,0,.73.26.68,1,0,2.55-.05,5.36-.05,8.42v12.42c0,4.53.15,7.07.26,9.88,0,.73-.26.88-1,.88-1.56,0-3.22,0-4.78,0-.62,0-.68-.1-.68-.83v-2.75Zm20.16-23.44H159.33v17.93h20.21Z"/><path class="cls-1" d="M219.72,1442.17a73.51,73.51,0,0,1,16.53,7.07c.57.31.83.68.57,1.35a30.2,30.2,0,0,1-2.24,4.52c-.2.37-.41.58-.67.58a.81.81,0,0,1-.57-.26,57.47,57.47,0,0,0-13.67-6.66v11.49c0,3.38.1,6.44.21,10.19.05.62-.21.78-.94.78a35.61,35.61,0,0,1-4.62,0c-.73,0-1-.16-1-.78.15-3.85.21-6.92.21-10.24v-25.57A39.86,39.86,0,0,0,213,1427a37.2,37.2,0,0,1,6.49.83c.73.15,1,.47,1,.88a2.78,2.78,0,0,1-.42,1.2c-.36.67-.36,2-.36,4.88Z"/><path class="cls-1" d="M283.18,1434.33a5.21,5.21,0,0,0,2.86-.78,1.52,1.52,0,0,1,.88-.37,1.8,1.8,0,0,1,.94.42,16.65,16.65,0,0,1,3.53,3.17,1.27,1.27,0,0,1,.42.93,1.33,1.33,0,0,1-.57,1,6.55,6.55,0,0,0-1.56,2,81.63,81.63,0,0,1-7.64,12.57,47.25,47.25,0,0,1,5.61,5.25,1,1,0,0,1,.31.73,1,1,0,0,1-.31.68,33.14,33.14,0,0,1-3.22,3.27,1.07,1.07,0,0,1-.63.26.9.9,0,0,1-.57-.31,54.41,54.41,0,0,0-5-5,63.32,63.32,0,0,1-16.58,13,2.79,2.79,0,0,1-1.3.47,1.55,1.55,0,0,1-1-.47,14.79,14.79,0,0,0-4.94-2.65c8.05-4.11,13.25-7.85,19.12-14.09a43.11,43.11,0,0,0-7.48-4.88c1.14-1.25,2.24-2.6,3.43-3.69a1,1,0,0,1,.68-.36,1.43,1.43,0,0,1,.52.2,52.86,52.86,0,0,1,6.7,4.16,50.11,50.11,0,0,0,6.08-10.29l-12.89.26c-4.26,5.46-7.64,9-11.12,11.69a1.87,1.87,0,0,1-1,.47,1.18,1.18,0,0,1-.83-.36,21.47,21.47,0,0,0-4.37-2.39,57.87,57.87,0,0,0,14.71-16.32,19.35,19.35,0,0,0,2.81-6.39,32.58,32.58,0,0,1,6.08,2.54.92.92,0,0,1,.57.83,1.4,1.4,0,0,1-.62,1,4.5,4.5,0,0,0-1.09,1.09c-.42.73-.73,1.25-1.62,2.6Z"/><path class="cls-1" d="M331.31,1459.17c0,3.58.05,6.65.16,10.81,0,.67-.21.88-.78.88a41,41,0,0,1-5.2,0c-.57,0-.78-.21-.73-.83.05-3.74.21-7.12.21-10.65v-12.11a91,91,0,0,1-14.29,10,1.51,1.51,0,0,1-.78.2,1.41,1.41,0,0,1-1.09-.52,19.64,19.64,0,0,0-4.47-3.06,83.43,83.43,0,0,0,16.37-10.66,84.38,84.38,0,0,0,11.07-10.86,15.17,15.17,0,0,0,3.27-5.35,45.45,45.45,0,0,1,5.77,3.64.92.92,0,0,1,.42.78,1.51,1.51,0,0,1-.73,1.14,16.66,16.66,0,0,0-3.12,2.86,83.7,83.7,0,0,1-6.08,6.55Z"/><path class="cls-1" d="M367.23,1439.32c-3.38,0-6.35.15-8.58.26-.68.05-.88-.32-1-1-.15-1-.36-3.75-.47-5.25a91.26,91.26,0,0,0,10,.36h18.56a4.94,4.94,0,0,0,2.86-.52,1.62,1.62,0,0,1,.88-.31,1.21,1.21,0,0,1,.88.36,19.33,19.33,0,0,1,3.54,3.59,1.74,1.74,0,0,1,.41,1,1.38,1.38,0,0,1-.52,1,6.3,6.3,0,0,0-1.19,2,61.07,61.07,0,0,1-10.09,16.89,58,58,0,0,1-14.75,12.37,2.55,2.55,0,0,1-1.41.47,1.86,1.86,0,0,1-1.3-.57,15.29,15.29,0,0,0-4.83-2.86c7.59-3.85,12.21-7.43,17-13a43.8,43.8,0,0,0,8.79-14.81Zm35.91-10a5.62,5.62,0,0,1-11.23,0,5.48,5.48,0,0,1,5.61-5.56A5.55,5.55,0,0,1,403.14,1429.34Zm-8.68,0a3.07,3.07,0,1,0,3.06-3.07A3,3,0,0,0,394.46,1429.34Z"/><path class="cls-1" d="M414.47,1453.5c-4.78,0-6.39.11-6.7.11-.58,0-.63-.06-.63-.63v-3.79c0-.52.05-.57.63-.57.31,0,1.92.1,6.7.1h29.88c4.73,0,6.4-.1,6.71-.1.52,0,.57.05.57.57V1453c0,.57-.05.63-.57.63-.31,0-2-.11-6.71-.11h-7.43V1464c0,1.3.05,1.87.42,2.34s1.92.62,4.78.62c2.34,0,3.69-.21,4.37-.78.88-.78,1.14-2.18,1.24-5.77a12.44,12.44,0,0,0,3.59,1.51c1.35.26,1.35.26,1.3,1.61-.21,3.54-.89,5.46-2.19,6.55-1.76,1.56-3.94,2.08-9.35,2.08s-7.33-.47-8.37-1.51c-.88-.93-1.25-2.28-1.25-5V1453.5h-6c-.21,5.25-1.41,8.94-3.33,11.49-2.44,3.69-6.44,5.82-11.48,7.48a4,4,0,0,1-1.2.31c-.47,0-.67-.31-1.14-1.24a13.3,13.3,0,0,0-2.55-3.49c5.46-1.24,9.1-2.85,11.23-5.45,1.92-2.39,2.8-5,3-9.1Zm29-22.71c4.83,0,6.6-.1,6.91-.1.52,0,.57,0,.57.57,0,.31-.1,1.25-.1,2.81v2.28c0,4.73.1,5.56.1,5.88,0,.52-.05.57-.57.57h-4.31c-.52,0-.57,0-.57-.57v-6.61H413.17v6.61c0,.57-.05.62-.57.62h-4.31c-.52,0-.58,0-.58-.62,0-.32.11-1.1.11-5.88v-1.87c0-2-.11-2.91-.11-3.22,0-.52.06-.57.58-.57.31,0,2.08.1,6.91.1h11v-.52a21.28,21.28,0,0,0-.37-4.94c1.93.06,3.8.16,5.56.32.47,0,.78.26.78.46a2.54,2.54,0,0,1-.31,1,10.51,10.51,0,0,0-.21,3.12v.52Zm-19.8,13.83c-4.68,0-6.24.1-6.55.1-.52,0-.57,0-.57-.57v-3.9c0-.57.05-.62.57-.62.31,0,1.87.1,6.55.1h11.38c4.63,0,6.24-.1,6.55-.1.52,0,.52,0,.52.62v3.9c0,.52,0,.57-.52.57-.31,0-1.92-.1-6.55-.1Z"/><path class="cls-1" d="M489,1438.9a66.24,66.24,0,0,0,2.13,14.71,42.22,42.22,0,0,0,3.12-6.08,25.9,25.9,0,0,0,1.4-4.78,29.09,29.09,0,0,1,4.84,1.87c.52.26.78.52.78.83s-.37.67-.73,1.09a7.73,7.73,0,0,0-1.3,2.55,58.47,58.47,0,0,1-5.93,10.55c1.88,4,4.27,6.49,5.57,6.49s1.81-1.56,2.13-6.39a10.23,10.23,0,0,0,2.91,2c1.5.78,1.5.78,1.24,2.39-.83,5.56-2.7,8.1-5.87,8.1-3.58,0-7-3.32-9.61-8.15a41.21,41.21,0,0,1-9.41,7.74,3.33,3.33,0,0,1-1.25.57c-.31,0-.57-.31-1.09-1.09a12.06,12.06,0,0,0-2.65-2.75,41.32,41.32,0,0,0,12.06-9.78c-2.18-5.56-3.33-11.74-3.8-19.9h-16v6.7H475c3.17,0,4.11-.1,4.42-.1.52,0,.62.1.62.67-.1,2-.15,4.16-.26,5.72-.26,4.42-.41,7.23-1.19,9.67a5.93,5.93,0,0,1-6,4.31,23.39,23.39,0,0,1-2.65-.1c-1.2-.11-1.25-.11-1.51-1.72a11,11,0,0,0-1.25-3.74,24,24,0,0,0,4.26.42,2.21,2.21,0,0,0,2.5-1.87,43.59,43.59,0,0,0,.78-8.37h-7.28a67.51,67.51,0,0,1-.93,9.09,39,39,0,0,1-4.06,12.17c-.36.67-.62,1-.88,1s-.57-.26-1-.83a16.29,16.29,0,0,0-3.22-2.91c2.39-3.48,3.43-7.59,4.05-11.49a84.4,84.4,0,0,0,.73-12.57c0-7.07-.1-10.14-.1-10.45,0-.57,0-.62.62-.62.31,0,2,.1,7,.1h13.83v-1.09a48.28,48.28,0,0,0-.42-7.33c2,.11,3.74.16,5.61.37.52,0,.78.31.78.62a2.38,2.38,0,0,1-.26,1c-.2.62-.31,1.71-.26,5.19V1434h7.8c4.89,0,6.6-.1,6.91-.1.52,0,.57.05.57.62v4c0,.52-.05.57-.57.57-.31,0-2-.1-6.91-.1Zm6.08-12.84c.52-.36.68-.36,1.09,0a23.23,23.23,0,0,1,4.47,4.37c.31.41.31.62-.26,1l-2.49,1.87c-.31.21-.52.37-.68.37s-.26-.16-.41-.37a20.34,20.34,0,0,0-4.21-4.57c-.21-.21-.31-.31-.31-.47s.15-.26.41-.46Z"/><path class="cls-2" d="M385.33,1316.12c.58-4.65,3.73-7.16,8-7.16,4.65,0,7.74,2.51,7.74,7,0,2.89-1.25,5.06-5.22,8.76-3.57,3.19-5.27,5.09-6.32,7.19h11.64v3.4H385.09v-3a32.92,32.92,0,0,1,7.4-9.61c3.39-3.26,4.14-4.61,4.14-6.75s-1.32-3.6-3.39-3.6-3.47,1.6-3.67,4.68Z"/><path class="cls-2" d="M420.86,1322.27c0,9.6-2.92,13.5-8.22,13.5s-8.11-3.83-8.11-13.44,3-13.37,8.18-13.37S420.86,1312.7,420.86,1322.27Zm-11.95,0c0,7.63,1,10.11,3.73,10.11s3.84-2.51,3.84-10.11-1.05-10-3.77-10S408.91,1314.63,408.91,1322.3Z"/><path class="cls-2" d="M424.21,1316.12c.58-4.65,3.73-7.16,8-7.16,4.65,0,7.73,2.51,7.73,7,0,2.89-1.25,5.06-5.22,8.76-3.57,3.19-5.26,5.09-6.31,7.19H440v3.4H424v-3a32.92,32.92,0,0,1,7.4-9.61c3.4-3.26,4.14-4.61,4.14-6.75s-1.32-3.6-3.39-3.6-3.46,1.6-3.67,4.68Z"/><path class="cls-2" d="M454,1332h4.85v3.3h-14V1332H450v-18.46a18.73,18.73,0,0,1-4.79,2.31l-.67-3.56a19.12,19.12,0,0,0,6-3.06H454Z"/><path class="cls-2" d="M468.46,1335.3H463.6v-4.69h4.86Z"/><path class="cls-2" d="M482.94,1332h4.86v3.3h-14V1332h5.09v-18.46a18.73,18.73,0,0,1-4.79,2.31l-.68-3.56a19.12,19.12,0,0,0,6-3.06h3.46Z"/><path class="cls-2" d="M502.39,1332h4.85v3.3h-14V1332h5.09v-18.46a18.73,18.73,0,0,1-4.79,2.31l-.68-3.56a19,19,0,0,0,6-3.06h3.47Z"/><path class="cls-3" d="M199.5,0V698.5c0,193.85,157.15,351,351,351s351,157.15,351,351v736"/><polygon class="cls-4" points="901.5 2388 756.68 2033.6 901.5 2117.69 1046.28 2033.6 901.5 2388"/><path class="cls-5" d="M199.5,0V698.5c0,193.85,157.15,351,351,351s351,157.15,351,351v34"/><path class="cls-1" d="M604.21,180.42a25.05,25.05,0,0,0-2.08-6.5,49.24,49.24,0,0,1,6.76-.16c.67.06,1,.26,1,.78a11.49,11.49,0,0,0,.1,3.75l.78,4.36,4.26-.73c3-.52,6.6-1.14,9.31-1.87.26,0,.46.21.57.57a37.24,37.24,0,0,1,1,4.47c0,.37-.26.52-.78.58-2.39.41-6.08,1-8.68,1.45L612,188l1.29,6.65,7.54-1.29c3.69-.63,6.24-1.2,8.16-1.72.67-.16.83,0,.88.57a28.61,28.61,0,0,1,.89,4.16.82.82,0,0,1-.78.88c-1.56.21-4.68.73-8.37,1.35l-7.17,1.25,1.19,5.77c.73,3.48,1.61,6.81,2.29,9.41,0,.26-.21.41-.68.57a36,36,0,0,1-4.73,1.09c-.67.05-1-.21-1-.62-.37-1.93-.94-5.56-1.67-8.89l-1.3-6.13-7.06,1.24c-3.54.63-6.45,1.25-8.42,1.77a.82.82,0,0,1-1.2-.57c-.52-1.51-1-3.48-1.46-5.15,3.17-.36,5.93-.77,9.67-1.4l7.28-1.19L606,189l-4.89.78c-2.86.47-6.34,1.2-7.74,1.56-.52.16-.78,0-1-.52a42.86,42.86,0,0,1-1.45-5.2c2.8-.2,5.66-.57,9.25-1.14l4.73-.73Z"/><path class="cls-1" d="M650,188.21a.93.93,0,0,1,1.35.37,27.69,27.69,0,0,1,4.47,7.69,3.16,3.16,0,0,1,.21.78c0,.31-.21.47-.62.72a21.59,21.59,0,0,1-3.33,1.62c-.73.26-1,0-1.3-.73a30.8,30.8,0,0,0-4.88-8.37C647.66,189.3,648.91,188.73,650,188.21Zm28.53.68c.42.31.68.57.68.88s-.16.57-.57.94a7,7,0,0,0-1.56,2.65,63.5,63.5,0,0,1-7.85,13.82,41.51,41.51,0,0,1-10.71,10,2.25,2.25,0,0,1-1.24.57,1.18,1.18,0,0,1-.83-.36,11.73,11.73,0,0,0-4.42-2.18c6.23-4.11,9.35-6.76,12.47-10.81a53.82,53.82,0,0,0,7-12.53,18.91,18.91,0,0,0,1.19-5.51A24.49,24.49,0,0,1,678.53,188.89Zm-18-3.17a.91.91,0,0,1,1.35.41,30.17,30.17,0,0,1,4,7.59c.26.78.16,1-.52,1.4a20.64,20.64,0,0,1-3.58,1.62c-.58.2-.78-.06-1-.78a35.42,35.42,0,0,0-4.37-8.32C658.42,186.65,659.62,186.08,660.5,185.72Z"/><path class="cls-1" d="M723.8,181.35a4.82,4.82,0,0,0,2.6-.62,1,1,0,0,1,.68-.21,1.48,1.48,0,0,1,.83.31,23.68,23.68,0,0,1,3.53,2.81,1.67,1.67,0,0,1,.68,1.19,1.53,1.53,0,0,1-.62,1.1,6.2,6.2,0,0,0-1.72,2.23,71.6,71.6,0,0,1-10.29,16.06,66,66,0,0,1-15.8,12.94,1.38,1.38,0,0,1-.83.26,1.86,1.86,0,0,1-1.2-.57,13.58,13.58,0,0,0-4.93-2.39c8.1-4.47,12.21-7.75,17.3-13.25a53,53,0,0,0,9.62-14.76l-12.58.36c-4.26,5.25-6.86,8.21-9.82,10.65a1.6,1.6,0,0,1-1.09.57,1.23,1.23,0,0,1-.78-.31,14.11,14.11,0,0,0-5-2.23,61.63,61.63,0,0,0,14-15.44,22.26,22.26,0,0,0,3.06-7,25.78,25.78,0,0,1,6.09,2.75,1.09,1.09,0,0,1,.52.88,1,1,0,0,1-.58.89,5.66,5.66,0,0,0-1.3,1.4c-.57.88-1.09,1.66-1.71,2.6Z"/><path class="cls-1" d="M767.51,193.77a42.9,42.9,0,0,1-7.32,8,58,58,0,0,1-9.83,7.27,2.19,2.19,0,0,1-1.19.47,1.09,1.09,0,0,1-.88-.52,11.83,11.83,0,0,0-4.27-3.07,60.77,60.77,0,0,0,12.11-8.21,49.66,49.66,0,0,0,7.64-8.05l-9.09.05c-2.7,0-5.61.1-8.32.26-.47.05-.67-.31-.73-.88a47.8,47.8,0,0,1-.41-5c3.12.21,6.18.26,9.3.26h12.37l-.21-4.62a25.68,25.68,0,0,0-.83-6.13,45.23,45.23,0,0,1,6.55.57c.52.1.68.31.68.62a3.06,3.06,0,0,1-.21.78c-.16.62-.37,1.46-.21,4.78l.16,3.95h4.52c3.64,0,6.23-.1,10.08-.26.52,0,.78.26.78.63,0,1.45,0,3.06,0,4.52a.66.66,0,0,1-.73.73c-3.79-.16-6.75-.26-10-.26h-4.21l.94,19.54c.16,2.75-.78,4.47-2.5,5.51a15.88,15.88,0,0,1-7.17,1.81c-1,0-1.35-.2-1.61-.88A10.45,10.45,0,0,0,759.3,211a38.25,38.25,0,0,0,7.33-.52c1.2-.26,1.61-.78,1.51-3.07Z"/><path class="cls-1" d="M809.93,184.52c-3.38,0-6.34.16-8.58.26-.67.05-.88-.31-1-1-.15-1-.36-3.74-.46-5.25a90.5,90.5,0,0,0,10,.37h18.55a5,5,0,0,0,2.86-.52,1.43,1.43,0,0,1,.78-.21,2.43,2.43,0,0,1,1,.26,15.81,15.81,0,0,1,3.8,3.43,1.29,1.29,0,0,1,.36.88,1.76,1.76,0,0,1-.73,1.3,6.49,6.49,0,0,0-1.19,2,61.43,61.43,0,0,1-10.08,16.89,58.29,58.29,0,0,1-14.76,12.37,2.55,2.55,0,0,1-1.41.47,1.86,1.86,0,0,1-1.3-.57,15.29,15.29,0,0,0-4.83-2.86c7.59-3.85,12.21-7.43,17-13a43.74,43.74,0,0,0,8.78-14.81Z"/><path class="cls-2" d="M588.56,132c.58-4.65,3.73-7.16,8-7.16,4.65,0,7.74,2.51,7.74,7,0,2.88-1.25,5-5.23,8.75-3.56,3.19-5.25,5.09-6.31,7.2h11.64v3.39h-16v-3a32.76,32.76,0,0,1,7.4-9.6c3.39-3.26,4.14-4.62,4.14-6.76s-1.32-3.59-3.39-3.59-3.47,1.59-3.67,4.68Z"/><path class="cls-2" d="M624.09,138.15c0,9.6-2.92,13.51-8.22,13.51s-8.11-3.84-8.11-13.44,3-13.37,8.18-13.37S624.09,128.58,624.09,138.15Zm-12,0c0,7.64,1.05,10.12,3.73,10.12s3.84-2.52,3.84-10.12-1.05-10-3.77-10S612.14,130.51,612.14,138.18Z"/><path class="cls-2" d="M627.44,132c.58-4.65,3.73-7.16,8-7.16,4.65,0,7.73,2.51,7.73,7,0,2.88-1.25,5-5.22,8.75-3.56,3.19-5.26,5.09-6.31,7.2h11.64v3.39h-16v-3a32.54,32.54,0,0,1,7.39-9.6c3.4-3.26,4.14-4.62,4.14-6.76s-1.32-3.59-3.39-3.59-3.46,1.59-3.67,4.68Z"/><path class="cls-2" d="M657.27,147.89h4.85v3.29h-14v-3.29h5.09V129.43a19.42,19.42,0,0,1-4.79,2.31l-.67-3.57a19.1,19.1,0,0,0,6-3h3.46Z"/><path class="cls-2" d="M671.69,151.18h-4.86V146.5h4.86Z"/><path class="cls-2" d="M687.29,130.62c-.4-1.91-1.49-2.55-2.71-2.55-3.09,0-4.55,3.22-4.68,9.16a5.94,5.94,0,0,1,5.29-3c4,0,6.75,3.15,6.75,8.38,0,5.6-3.25,9.1-7.9,9.1-5,0-8.32-3.67-8.32-12.43,0-10.24,3.46-14.38,9-14.38,3.43,0,5.6,1.49,6.76,4.24ZM684,148.4c2.38,0,3.67-1.94,3.67-5.7,0-3.47-1.22-5.26-3.5-5.26-1.69,0-3.19,1.15-4.24,3.29C679.93,146.19,681.56,148.4,684,148.4Z"/><path class="cls-6" d="M492,95.33a108.42,108.42,0,0,0-177,35.82c-9.11,5.79-45.44,27.46-100,41.92,57.73,14.48,95.09,38.57,101.3,42.76A108.36,108.36,0,1,0,492,95.33Z"/><path class="cls-7" d="M398.41,228.93c13.58-4.22,38.6-18.32,58.72-30.54,12.87-7.82,6.44-27.83-8.56-26.54s-26.79,2.47-36.44-2.35c-3.77-1.89-7.54-7.54-11.31-13.2l-10.61-19.67-37.8,21.22s7.06,14,10.42,22.09c9.72,23.49,4.06,21.6,11.6,38.57C378.9,228.55,389.51,231.7,398.41,228.93Z"/><circle class="cls-7" cx="455.49" cy="137.45" r="15.08"/><path class="cls-1" d="M600.26,676.3c-3.38,0-6.34.15-8.57.26-.68.05-.89-.31-1-1-.16-1-.37-3.74-.47-5.25a91.14,91.14,0,0,0,10,.36h18.55a4.94,4.94,0,0,0,2.86-.52,1.65,1.65,0,0,1,.88-.31,1.21,1.21,0,0,1,.89.36,19.25,19.25,0,0,1,3.53,3.59,1.78,1.78,0,0,1,.42,1,1.46,1.46,0,0,1-.52,1,6.34,6.34,0,0,0-1.2,2,61,61,0,0,1-10.08,16.9,58.25,58.25,0,0,1-14.76,12.36,2.45,2.45,0,0,1-1.4.47,1.79,1.79,0,0,1-1.3-.57,15.6,15.6,0,0,0-4.83-2.86c7.58-3.84,12.21-7.43,17-13A43.84,43.84,0,0,0,619,676.3Zm35.91-10a5.61,5.61,0,0,1-11.22,0,5.48,5.48,0,0,1,5.61-5.56A5.54,5.54,0,0,1,636.17,666.32Zm-8.68,0a3.07,3.07,0,1,0,3.07-3.07A3,3,0,0,0,627.49,666.32Z"/><path class="cls-1" d="M652.29,699.79v3.06c0,.89-.21,1-1.15,1-1.29.06-2.8.06-4.1,0-.88,0-1.14-.15-1.09-.78,0-2.7.15-6.39.15-10.34V680c0-2.81.06-5.61-.1-8.63,0-.52.21-.73.57-.73,2.76.16,5.82.16,9.3.16h12.37c3.38,0,7.33,0,9.77-.1.58,0,.73.26.68,1,0,2.54-.05,5.35-.05,8.42v12.42c0,4.52.15,7.06.26,9.87,0,.73-.26.88-1,.88-1.56.06-3.22.06-4.78,0-.63,0-.68-.1-.68-.83v-2.75Zm20.16-23.44H652.24v17.93h20.21Z"/><path class="cls-1" d="M696.26,679.36c.26-.36.52-.62,1-.52a36.15,36.15,0,0,1,10,5.1c.37.26.58.46.58.78a1.68,1.68,0,0,1-.21.57,21.43,21.43,0,0,1-2.29,4c-.26.31-.47.52-.67.52a1.05,1.05,0,0,1-.63-.31,45.18,45.18,0,0,0-10.5-5.67C694.8,681.7,695.64,680.2,696.26,679.36Zm8.42,19.29a87.05,87.05,0,0,0,14.24-9,94.53,94.53,0,0,0,15-14.5,25.7,25.7,0,0,0,1.5,5.82,2.52,2.52,0,0,1,.26,1,1.61,1.61,0,0,1-.57,1.2,97.24,97.24,0,0,1-13.2,12,119.32,119.32,0,0,1-15.54,9.77,17.15,17.15,0,0,0-3,1.77,1.16,1.16,0,0,1-.83.42,1.32,1.32,0,0,1-1-.63,32.86,32.86,0,0,1-3.85-5.3A24.16,24.16,0,0,0,704.68,698.65Zm-2.13-31.24c.36-.62.67-.73,1.3-.42a35.78,35.78,0,0,1,9.77,5.77.83.83,0,0,1,.41.68,1.27,1.27,0,0,1-.2.67,21.84,21.84,0,0,1-2.66,3.9.56.56,0,0,1-.51.31,1.32,1.32,0,0,1-.78-.36,50.75,50.75,0,0,0-10.09-6.39Zm23.8-1.61c.26-.21.47-.16.78.1a24.21,24.21,0,0,1,4.94,5.56.53.53,0,0,1-.16.84l-2.18,1.61a.55.55,0,0,1-.89-.16,25.86,25.86,0,0,0-5.24-6Zm4.63-3.38c.31-.21.46-.15.78.1a21.75,21.75,0,0,1,4.93,5.36.6.6,0,0,1-.15.93l-2.08,1.61a.54.54,0,0,1-.89-.15,24.48,24.48,0,0,0-5.19-6Z"/><path class="cls-1" d="M768.92,699.53h5.51c2.65,0,5.56,0,8.36-.21.47,0,.68.31.73,1,.05,1.09.05,2.23,0,3.32,0,.68-.26,1-.88.94-2.7,0-5.77-.1-8.16-.1H758.16c-3.12,0-5.46.1-7.64.2-.62,0-.88-.31-1-1.09a24.5,24.5,0,0,1-.26-4.21c3,.21,5.56.21,8.89.21h5.2V686.43H760.5c-2.13,0-4,0-6.39.05-.47.06-.73-.26-.84-1s-.2-2.28-.31-4.15c2.24.2,5,.2,7.23.2h11.53c2.34,0,4.73-.1,7-.1.62,0,.78.26.83.88,0,1,0,2.19,0,3.23-.05.83-.26,1-1,1-2,0-4.62-.1-6.75-.1h-2.86Z"/><path class="cls-1" d="M827.75,672.45a4.85,4.85,0,0,0,2.6-.62,1,1,0,0,1,.68-.21,1.48,1.48,0,0,1,.83.31,23.68,23.68,0,0,1,3.53,2.81,1.67,1.67,0,0,1,.68,1.19,1.49,1.49,0,0,1-.62,1.09,6.32,6.32,0,0,0-1.72,2.24,71.6,71.6,0,0,1-10.29,16.06,66,66,0,0,1-15.8,12.94,1.38,1.38,0,0,1-.83.26,1.86,1.86,0,0,1-1.2-.57,13.67,13.67,0,0,0-4.93-2.39c8.1-4.47,12.21-7.75,17.3-13.26a52.74,52.74,0,0,0,9.62-14.76l-12.58.37c-4.26,5.25-6.86,8.21-9.82,10.65a1.6,1.6,0,0,1-1.09.57,1.23,1.23,0,0,1-.78-.31,14.19,14.19,0,0,0-5-2.23,61.63,61.63,0,0,0,14-15.44,22.26,22.26,0,0,0,3.06-7,25.46,25.46,0,0,1,6.08,2.75,1.07,1.07,0,0,1,.52.88,1,1,0,0,1-.57.89,5.66,5.66,0,0,0-1.3,1.4c-.57.88-1.09,1.66-1.71,2.6Z"/><path class="cls-1" d="M868.55,679.16a73.29,73.29,0,0,1,16.53,7.06c.57.32.83.68.57,1.36a30.23,30.23,0,0,1-2.23,4.52c-.21.36-.42.57-.68.57a.8.8,0,0,1-.57-.26,57.41,57.41,0,0,0-13.67-6.65v11.48c0,3.38.11,6.45.21,10.19,0,.62-.21.78-.94.78a35.61,35.61,0,0,1-4.62,0c-.73,0-1-.16-1-.78.16-3.85.21-6.91.21-10.24V671.62a39.93,39.93,0,0,0-.52-7.69,37.46,37.46,0,0,1,6.5.83c.72.16,1,.47,1,.88a2.7,2.7,0,0,1-.41,1.2c-.37.67-.37,2-.37,4.88Z"/><path class="cls-1" d="M592.62,780c-.52,0-.57,0-.57-.57,0-.73.31-11,.36-23.08a44.35,44.35,0,0,1-4,10.6c-.31.57-.52.89-.67.89s-.32-.32-.52-.94a14.8,14.8,0,0,0-1.82-3.74,44.63,44.63,0,0,0,6.49-16h-.31c-3.17,0-4.1.1-4.41.1-.47,0-.53,0-.53-.57V743c0-.52.06-.57.53-.57.31,0,1.24.1,4.41.1h.68v-3.17a41.51,41.51,0,0,0-.37-6.86,42.67,42.67,0,0,1,4.89.37c.47.1.83.31.83.57a2.41,2.41,0,0,1-.31,1c-.26.67-.31,1.45-.31,4.83v3.22c2.13,0,2.91-.1,3.17-.1.52,0,.57.05.57.57v3.74c0,.52-.05.57-.57.57-.26,0-1,0-3-.1a30.16,30.16,0,0,0,4.63,8.89,20.65,20.65,0,0,0-1.66,3.58c-.21.58-.37.84-.52.84s-.32-.26-.63-.84a31.78,31.78,0,0,1-2.08-5.71c0,13.61.32,24.74.32,25.52,0,.52-.06.57-.58.57Zm19.59-20.69c.47-.21.58-.21.89.26a40.24,40.24,0,0,1,3.9,8.32.79.79,0,0,1,0,.31,37,37,0,0,0,5.09-8.42c.31-.73.62-1.51.89-2.34h-.78c-3.75,0-4.89.11-5.25.11-.52,0-.58-.06-.58-.58v-3.74c0-.52.06-.57.58-.57.15,0,.57,0,1.4,0v-13c-.83,0-1.2,0-1.35,0-.52,0-.57,0-.57-.57v-3.59c0-.57,0-.62.57-.62.31,0,1.4.1,5.09.1h5.77c3.69,0,4.83-.1,5.15-.1.52,0,.57,0,.57.62v3.59c0,.52,0,.57-.57.57-.21,0-.89,0-2.34,0A85,85,0,0,1,629,752.79c3.17,0,4.21-.1,4.52-.1.57,0,.62,0,.62.57V757c0,.52-.05.58-.62.58-.31,0-1.45-.11-5.2-.11h-.52c-.36,1.14-.72,2.24-1.14,3.28a6,6,0,0,1,1,.1c.47,0,.73.31.73.62a2.78,2.78,0,0,1-.32,1.09,6.26,6.26,0,0,0-.2,2.34v7.33a5,5,0,0,0,.15,1.92c.11.21.31.26,1,.26s.93-.2,1.2-.93.26-1.72.31-6.45a11.06,11.06,0,0,0,2.8,2c1,.41,1.09.41,1,1.61-.21,4.52-.67,5.92-1.66,7s-2.29,1.5-4.57,1.5a5.7,5.7,0,0,1-3.43-.72c-1.1-.73-1.35-1.56-1.35-4V767.5A42.74,42.74,0,0,1,613,779.14c-.57.42-.88.68-1.14.68s-.52-.31-1-1a12,12,0,0,0-2.91-2.54,38.35,38.35,0,0,0,8.63-7.44l-2.55,1.2c-.67.31-.78.31-.93-.26l-.47-1.46c-2.7,1.61-5.61,3.07-9.25,4.84a8,8,0,0,0-2,1.3,1,1,0,0,1-.67.41,1,1,0,0,1-.83-.67,37,37,0,0,1-1.46-4.68,20.87,20.87,0,0,0,3.64-1V743.65c0-5.2-.11-7.9-.11-8.21,0-.52.06-.58.52-.58s1.72.11,4.63.11h4c2.24,0,3.07-.11,3.38-.11.52,0,.57.06.57.58,0,.31-.1,2.07-.1,5.76v10c0,3.69.1,5.46.1,5.77,0,.57-.05.63-.57.63-.31,0-1.14-.11-3.38-.11H606.5v9.15q2.25-1,4.52-2.18a34.65,34.65,0,0,0-1.66-3.17c-.32-.52-.16-.63.46-.89Zm-5.71-20v4.46h4.26v-4.46Zm4.26,8.83H606.5V753h4.26Zm12-8.57v13.14h1.62A76.06,76.06,0,0,0,626,739.65Z"/><path class="cls-1" d="M646,764.33c-4.57,0-6.13.11-6.45.11s-.51-.06-.51-.58v-3.69c0-.46.05-.52.51-.52s1.88.11,6.45.11h8.31a18.51,18.51,0,0,0,2-4.11,37.49,37.49,0,0,1,5.09.78c.63.16.78.42.78.68a1,1,0,0,1-.57.83,5.45,5.45,0,0,0-1.5,1.82h18.71c4.57,0,6.13-.11,6.44-.11.47,0,.52.06.52.52v3.69c0,.52,0,.58-.52.58-.31,0-1.87-.11-6.44-.11h-4.68a26.64,26.64,0,0,1-4.32,6.19,110.65,110.65,0,0,1,12.53,4.83c.26.1.41.26.41.42s-.1.31-.31.57l-2.54,3c-.57.62-.57.78-1.09.47a78.28,78.28,0,0,0-13.05-5.72c-5.46,3.74-12.52,5.3-21.78,5.93-1.61.1-1.71.15-2.33-1.46a11.35,11.35,0,0,0-1.82-3.12c8.73-.15,14.86-1.25,19.38-3.27-2-.52-4.21-1-6.6-1.51a6,6,0,0,1-.57.73,1.23,1.23,0,0,1-1.4.41l-3.75-.83c-.46-.1-.51-.41-.31-.67l1.25-1.51a23,23,0,0,0,1.92-2.44l1.46-2Zm.62-25.31c-4.62,0-6.23.11-6.54.11-.53,0-.58-.06-.58-.58v-3.69c0-.52,0-.57.58-.57.31,0,1.92.11,6.54.11h31.6c4.68,0,6.24-.11,6.55-.11.52,0,.57.05.57.57v3.69c0,.52-.05.58-.57.58-.31,0-1.87-.11-6.55-.11h-8.16v3.69h3.28c5.09,0,6.91-.1,7.22-.1.52,0,.57,0,.57.57,0,.31-.1,1.3-.1,3.84v4.21c0,2.55.1,3.49.1,3.85,0,.52,0,.57-.57.57-.31,0-2.13-.1-7.22-.1H651.4c-5.09,0-6.91.1-7.22.1-.52,0-.57,0-.57-.57,0-.36.1-1.3.1-3.85V747c0-2.54-.1-3.48-.1-3.84,0-.52,0-.57.57-.57.31,0,2.13.1,7.22.1h2.86V739Zm7.64,12.58v-5h-5.35v5Zm3,12.73c-.63.94-1.25,1.82-1.93,2.7,3,.58,6,1.2,8.89,1.93a20.54,20.54,0,0,0,3.85-4.63ZM665,742.71V739H659.3v3.69Zm0,3.9H659.3v5H665Zm10.86,0h-5.82v5h5.82Z"/><path class="cls-1" d="M693.4,746.66c.42-.52.57-.52,1-.26a39.87,39.87,0,0,1,7.48,5.41c.21.2.32.31.32.41s-.11.31-.32.63l-2.34,3.32c-.15.26-.25.37-.41.37s-.26-.11-.47-.32a42.25,42.25,0,0,0-7.38-5.76c-.26-.16-.41-.26-.41-.37a1.32,1.32,0,0,1,.36-.62Zm.52,25.47A95.63,95.63,0,0,0,698.65,760a24.53,24.53,0,0,0,2.91,2.59c.83.63,1.09.89,1.09,1.36a5,5,0,0,1-.26,1.14c-1.45,4.16-3,8.16-4.62,11.64a9.31,9.31,0,0,0-.78,2.08c-.11.42-.32.73-.63.73a2.39,2.39,0,0,1-1.09-.42,31.45,31.45,0,0,1-3.95-2.75A26.38,26.38,0,0,0,693.92,772.13Zm1.82-38.72c.42-.47.57-.47,1-.21a45.52,45.52,0,0,1,7.58,5.56c.21.16.32.31.32.47s-.11.31-.32.62l-2.39,3.28c-.36.52-.46.46-.88.15a46.61,46.61,0,0,0-7.69-6.08c-.26-.15-.37-.26-.37-.36s.11-.31.37-.63Zm15.59,26.71c-5.14,0-6.91.11-7.22.11-.52,0-.57-.06-.57-.58v-3.84c0-.57.05-.63.57-.63.31,0,2.08.11,7.22.11h4a83.16,83.16,0,0,0,.52-8.94h-2.39c-4.78,0-6.44.1-6.7.1-.52,0-.57-.05-.57-.57v-4c0-.52,0-.57.57-.57.26,0,1.92.1,6.7.1H716v-3a36.69,36.69,0,0,0-.37-6c1.82.1,3.9.21,5.67.42.52.1.88.31.88.62a2.66,2.66,0,0,1-.36,1.09,7.53,7.53,0,0,0-.37,3.12v3.79h4.73c4.84,0,6.5-.1,6.81-.1.52,0,.57,0,.57.57,0,.31-.1,1.61-.1,4.58v8.78c2.7,0,3.79-.11,4.05-.11.52,0,.57.06.57.63v3.84c0,.52,0,.58-.57.58-.31,0-2.08-.11-7.17-.11h-7.85c2.81,6.71,8.32,11.54,15.7,14.61a15.13,15.13,0,0,0-2.29,3.89c-.36.89-.57,1.25-.93,1.25a3.9,3.9,0,0,1-1.25-.52c-6.91-4-12-8.94-14.76-15.8-2,6-6,11.54-13.31,16a3.1,3.1,0,0,1-1.3.57c-.36,0-.57-.37-1-1.2a11,11,0,0,0-2.66-3.22c8-4,12.11-8.83,13.88-15.54Zm16.74-4.83v-8.94h-6.76c0,3.48-.21,6.39-.47,8.94Z"/><path class="cls-1" d="M759.15,752.48c-5,0-6.71.11-7,.11-.57,0-.62-.06-.62-.58v-3.79c0-.52,0-.57.62-.57.31,0,2,.1,7,.1H773.8c5,0,6.71-.1,7-.1.52,0,.57.05.57.57V752c0,.52,0,.58-.57.58-.31,0-2-.11-7-.11h-4.41v6.91h6.34c4.26,0,5.66-.1,6-.1.58,0,.63.05.63.57v3.8c0,.46-.05.52-.63.52-.31,0-1.71-.11-6-.11h-6.34V773a88,88,0,0,0,10,.47c3,0,6.65-.21,10.08-.47a14.4,14.4,0,0,0-1,3.74c-.21,1.61-.26,1.61-1.87,1.77-2,.1-4,.15-6.13.15-18.61,0-22.25-2.85-26.35-9a29.65,29.65,0,0,1-6.34,8.89c-.52.57-.83.88-1.15.88s-.51-.31-1-1a11.37,11.37,0,0,0-3-2.7A24.59,24.59,0,0,0,752,759.24a25.78,25.78,0,0,0,.31-3.33c1.71.26,3.43.63,4.93,1,.73.16,1,.36,1,.73a1.6,1.6,0,0,1-.47,1,4.52,4.52,0,0,0-.67,1.62,41.91,41.91,0,0,1-.94,4.1c1.87,3.64,3.75,6,7.8,7.43V752.48Zm21.72-14.76c4.84,0,6.55-.1,6.86-.1.52,0,.57,0,.57.52s-.1,1.25-.1,2.7v2.24c0,4.62.1,5.4.1,5.71,0,.52,0,.57-.57.57h-4.26c-.52,0-.57-.05-.57-.57V742.5H750v6.29c0,.52,0,.57-.62.57h-4.21c-.52,0-.57-.05-.57-.57,0-.36.1-1.09.1-5.71v-1.77c0-1.92-.1-2.81-.1-3.17s0-.52.57-.52c.36,0,2,.1,6.91.1H763.2v-.47a21,21,0,0,0-.36-4.93c1.92,0,3.79.1,5.56.26.47,0,.78.2.78.52a2.49,2.49,0,0,1-.31,1,9.25,9.25,0,0,0-.21,3.12v.52Z"/><path class="cls-2" d="M588.56,623.11c.58-4.65,3.73-7.16,8-7.16,4.65,0,7.74,2.51,7.74,7,0,2.88-1.25,5-5.22,8.75-3.57,3.19-5.26,5.09-6.32,7.2h11.64v3.39h-16v-3a32.76,32.76,0,0,1,7.4-9.6c3.39-3.26,4.14-4.62,4.14-6.76s-1.32-3.59-3.39-3.59S593,620.9,592.8,624Z"/><path class="cls-2" d="M624.09,629.25c0,9.6-2.92,13.5-8.22,13.5s-8.11-3.83-8.11-13.43,3-13.37,8.18-13.37S624.09,619.68,624.09,629.25Zm-12,0c0,7.64,1.05,10.12,3.73,10.12s3.84-2.52,3.84-10.12-1.05-10-3.77-10S612.14,621.61,612.14,629.28Z"/><path class="cls-2" d="M627.44,623.11c.58-4.65,3.73-7.16,8-7.16,4.65,0,7.73,2.51,7.73,7,0,2.88-1.25,5-5.22,8.75-3.56,3.19-5.26,5.09-6.31,7.2h11.64v3.39H627.2v-3a32.76,32.76,0,0,1,7.4-9.6c3.4-3.26,4.14-4.62,4.14-6.76s-1.32-3.59-3.39-3.59-3.46,1.59-3.67,4.68Z"/><path class="cls-2" d="M657.27,639h4.85v3.29h-14V639h5.09V620.53a19.06,19.06,0,0,1-4.79,2.3l-.67-3.56a19.1,19.1,0,0,0,6-3h3.46Z"/><path class="cls-2" d="M671.69,642.28h-4.86V637.6h4.86Z"/><path class="cls-2" d="M692.08,635.56c0,4.31-3.29,7.19-8.35,7.19s-8.38-2.68-8.38-7c0-3,1.56-4.75,5-6.45-3.22-1.66-4.41-3.73-4.41-6.62,0-3.73,3.09-6.68,7.74-6.68s7.8,2.71,7.8,6.55c0,2.78-1.49,4.64-4.54,5.9C690.69,630.17,692.08,632.2,692.08,635.56Zm-9.13-5c-2.41,1.32-3.56,2.71-3.56,4.88a4,4,0,0,0,4.31,4.21c2.68,0,4.34-1.49,4.34-3.93,0-2-1-3.19-4.1-4.69Zm1.49-3.36c2.28-1.19,3.06-2.51,3.06-4.51a3.53,3.53,0,0,0-3.8-3.6A3.41,3.41,0,0,0,680,622.6c0,1.76.85,2.88,3.53,4.14Z"/><path class="cls-6" d="M492,606.43a108.42,108.42,0,0,0-177,35.82c-9.11,5.79-45.44,27.46-100,41.92,57.73,14.48,95.09,38.57,101.3,42.76A108.36,108.36,0,1,0,492,606.43Z"/><path class="cls-7" d="M402.21,641.48V628.14l-2,2L372.25,658.1l-2,2h13.35A18.66,18.66,0,0,0,402.21,641.48Z"/><path class="cls-7" d="M460.61,667.89V646.77A18.65,18.65,0,0,0,442,628.14H409.34v13.34a25.8,25.8,0,0,1-25.76,25.77H370.23v53.33a18.66,18.66,0,0,0,18.64,18.64H442c9.76,0,18.65-4.13,18.65-16.28Z"/><line class="cls-8" x1="395.93" y1="689.29" x2="436.21" y2="689.29"/><line class="cls-8" x1="395.93" y1="705.03" x2="436.21" y2="705.03"/><line class="cls-8" x1="395.93" y1="720.77" x2="436.21" y2="720.77"/><path class="cls-9" d="M603.31,1463.84c42.32,41.41,110.93,41.41,153.24,0a105.46,105.46,0,0,0,23.8-35c9.1-5.66,45.44-26.87,99.95-41C822.58,1373.6,785.22,1350,779,1345.92a105.6,105.6,0,0,0-22.46-32c-42.31-41.41-110.92-41.41-153.24,0A104.43,104.43,0,0,0,603.31,1463.84Z"/><path class="cls-7" d="M708.05,1380.18c19.9-1.79,24-11.36,18.13-20.33-10.52-16.11-33.77-22.45-57.23-15.17-29.53,9.17-49.06,37-43.63,62.27s33.77,38.23,63.29,29.07a67.64,67.64,0,0,0,31.57-20.77c3.16-3.74,4.26-15.33-10.38-14.73C694.2,1401.16,692,1381.62,708.05,1380.18ZM703,1358.31a7.62,7.62,0,0,1,10.93,0,8,8,0,0,1,0,11.17,7.62,7.62,0,0,1-10.93,0,8,8,0,0,1,0-11.17Zm-65.28,25.92a6.64,6.64,0,0,1,8.44-4.32,6.85,6.85,0,0,1,4.23,8.61,6.65,6.65,0,0,1-8.44,4.33A6.85,6.85,0,0,1,637.7,1384.23Zm12.76,31.35a6.23,6.23,0,0,1-8.94.25,6.56,6.56,0,0,1-.24-9.13,6.21,6.21,0,0,1,8.93-.25A6.55,6.55,0,0,1,650.46,1415.58Zm12.74-42.93a6.93,6.93,0,0,1-9.8-1.64,7.27,7.27,0,0,1,1.6-10h0a6.93,6.93,0,0,1,9.8,1.64A7.28,7.28,0,0,1,663.2,1372.65ZM675.4,1359a7.5,7.5,0,0,1,6.47-8.35,7.41,7.41,0,0,1,8.18,6.61,7.51,7.51,0,0,1-6.47,8.36A7.42,7.42,0,0,1,675.4,1359Zm22.48,56.48a9.74,9.74,0,0,1-2.74,6.76,9.21,9.21,0,0,1-13.25,0,9.72,9.72,0,0,1,0-13.53,9.24,9.24,0,0,1,13.25,0A9.76,9.76,0,0,1,697.88,1415.51Z"/><path class="cls-1" d="M313.23,1916.41a36,36,0,0,0-.57-7.59,38.5,38.5,0,0,1,6.44,1.09c.63.16.89.47.89.83a2.27,2.27,0,0,1-.21.78c-.47,1-.57,2.29-.57,4.94V1927c0,2.7.1,4.73.15,6.55,0,.78-.31,1-1.14,1h-4.16c-.73,0-1-.26-1-.89,0-1.82.16-4.83.16-7.07Zm24.48,9.72c0,7.69-1.15,12.83-4.21,16.94a26.8,26.8,0,0,1-11.44,8.16,3.35,3.35,0,0,1-1.09.26,1.69,1.69,0,0,1-1.24-.62,16.74,16.74,0,0,0-4.42-3.17c5.56-1.72,9.92-4.16,12.68-7.59,2.39-3,3.48-7.28,3.48-13.88v-9.82a38,38,0,0,0-.57-8.47,32.26,32.26,0,0,1,6.76,1.14.87.87,0,0,1,.72.88,1.67,1.67,0,0,1-.2.83c-.47,1.1-.47,2.45-.47,5.67Z"/><path class="cls-1" d="M365.2,1916.41a35.34,35.34,0,0,0-.57-7.59,38.45,38.45,0,0,1,6.45,1.09c.62.16.88.47.88.83a2.07,2.07,0,0,1-.21.78c-.47,1-.57,2.29-.57,4.94V1927c0,2.7.1,4.73.16,6.55,0,.78-.32,1-1.15,1H366c-.73,0-1-.26-1-.89,0-1.82.15-4.83.15-7.07Zm24.48,9.72c0,7.69-1.14,12.83-4.21,16.94a26.77,26.77,0,0,1-11.43,8.16,3.47,3.47,0,0,1-1.09.26,1.71,1.71,0,0,1-1.25-.62,16.74,16.74,0,0,0-4.42-3.17c5.56-1.72,9.93-4.16,12.68-7.59,2.39-3,3.49-7.28,3.49-13.88v-9.82a37.89,37.89,0,0,0-.58-8.47,32.14,32.14,0,0,1,6.76,1.14.88.88,0,0,1,.73.88,1.58,1.58,0,0,1-.21.83c-.47,1.1-.47,2.45-.47,5.67Z"/><path class="cls-1" d="M418.53,1932.88a41.1,41.1,0,0,0-7.64.63c-.62,0-1-.31-1.2-1.09a55.2,55.2,0,0,1-.77-6.29,66.66,66.66,0,0,0,11.22.62h16.74c3.95,0,7.95-.1,11.95-.16.78,0,.93.11.93.73a36.27,36.27,0,0,1,0,4.89c0,.62-.2.83-.93.78-3.9,0-7.75-.11-11.59-.11Z"/><path class="cls-1" d="M487.71,1912.82c1.87,0,2.8,0,3.58-.47a.9.9,0,0,1,.57-.2,1.67,1.67,0,0,1,.89.41,19.4,19.4,0,0,1,3.38,3.64,1.09,1.09,0,0,1-.42,1.72,9.63,9.63,0,0,0-1.92,2.28,81.16,81.16,0,0,1-6.66,9.72,122.4,122.4,0,0,1,14.4,12.58,1.19,1.19,0,0,1,.42.73,1.3,1.3,0,0,1-.37.77,27,27,0,0,1-3.48,3.54.88.88,0,0,1-.62.31,1.06,1.06,0,0,1-.73-.41,94.32,94.32,0,0,0-13.51-12.89,75.07,75.07,0,0,1-17.46,13.72,3.48,3.48,0,0,1-1.2.41,1.14,1.14,0,0,1-.88-.47,14.22,14.22,0,0,0-4.37-3.37,65.08,65.08,0,0,0,28.07-26.3l-13.41,0c-2.71,0-5.41.11-8.21.31-.42.06-.58-.31-.68-.88a30.28,30.28,0,0,1-.47-5.41c2.81.21,5.41.21,8.79.21Z"/><path class="cls-2" d="M404.88,1866.18c.58-4.65,3.73-7.16,8-7.16,4.64,0,7.73,2.51,7.73,7,0,2.88-1.25,5.06-5.22,8.75-3.57,3.19-5.26,5.09-6.32,7.2h11.64v3.39H404.64v-3a32.76,32.76,0,0,1,7.4-9.6c3.39-3.26,4.14-4.62,4.14-6.76s-1.32-3.59-3.39-3.59-3.46,1.59-3.67,4.68Z"/><path class="cls-2" d="M440.41,1872.32c0,9.6-2.92,13.51-8.21,13.51s-8.12-3.84-8.12-13.44,3-13.37,8.18-13.37S440.41,1862.75,440.41,1872.32Zm-12,0c0,7.64,1.05,10.12,3.74,10.12S436,1880,436,1872.35s-1-10-3.77-10S428.46,1864.69,428.46,1872.35Z"/><path class="cls-2" d="M443.76,1866.18c.58-4.65,3.74-7.16,8-7.16,4.65,0,7.74,2.51,7.74,7,0,2.88-1.26,5.06-5.23,8.75-3.56,3.19-5.26,5.09-6.31,7.2h11.64v3.39H443.53v-3a32.54,32.54,0,0,1,7.39-9.6c3.4-3.26,4.14-4.62,4.14-6.76s-1.32-3.59-3.39-3.59-3.46,1.59-3.66,4.68Z"/><path class="cls-2" d="M463.21,1866.18c.57-4.65,3.73-7.16,8-7.16,4.65,0,7.74,2.51,7.74,7,0,2.88-1.26,5.06-5.23,8.75-3.56,3.19-5.26,5.09-6.31,7.2H479v3.39H463v-3c1.52-3.19,3.7-6,7.4-9.6,3.39-3.26,4.14-4.62,4.14-6.76s-1.33-3.59-3.4-3.59-3.46,1.59-3.66,4.68Z"/><path class="cls-2" d="M488,1885.35h-4.85v-4.68H488Z"/><path class="cls-2" d="M502.5,1882.06h4.85v3.29h-14v-3.29h5.09V1863.6a19.07,19.07,0,0,1-4.79,2.31l-.68-3.57a19.15,19.15,0,0,0,6.05-3h3.46Z"/><path class="cls-9" d="M603.42,1975.9c42.32,41.41,110.93,41.41,153.24,0a105.5,105.5,0,0,0,23.8-35.06c9.1-5.66,45.44-26.86,99.95-41-57.72-14.17-95.08-37.75-101.29-41.84a105.64,105.64,0,0,0-22.46-32c-42.31-41.41-110.92-41.41-153.24,0A104.45,104.45,0,0,0,603.42,1975.9Z"/><path class="cls-7" d="M710.32,1847.82H647.55v10.42h62.77Z"/><path class="cls-7" d="M710.32,1863.61H624.77v24.05a18.22,18.22,0,0,0,2.66,9.63,22.34,22.34,0,0,0,10.5,8.65,32.7,32.7,0,0,0,12.81,2.59V1908c6.49,13.72,20.68,14.84,20.68,26.45,0,15,2.21,17.82-13.26,24.46v9.72h41.55v-9.72c-15.47-6.64-13.26-9.43-13.26-24.46,0-11.61,14.2-12.73,20.69-26.45v.52a32.73,32.73,0,0,0,12.81-2.59,22.44,22.44,0,0,0,10.5-8.65,18.21,18.21,0,0,0,2.65-9.63v-24.05Zm-71,32a11,11,0,0,1-3.48-3.42,8.51,8.51,0,0,1-1.23-4.52v-14.25h13V1892a46.4,46.4,0,0,0,.48,6.53A21,21,0,0,1,639.28,1895.6Zm84-7.94a8.42,8.42,0,0,1-1.22,4.52,11,11,0,0,1-3.49,3.42,21,21,0,0,1-8.75,3,46.4,46.4,0,0,0,.48-6.53v-18.61h13Z"/><g class="cls-10"><path class="cls-7" d="M208,294.77c2.78-.66,4.2-2.19,4.2-4.57,0-2.71-1.29-4.27-3.34-4.27-2.25,0-3.28,1-4.3,4.7l-.4,1.36c-1.59,5.86-3.8,7.51-7.58,7.51-4.5,0-7.61-3.11-7.61-9.27,0-5,2.19-8.47,6.65-9.69l1.36,4.27c-3,.66-4.63,2.61-4.63,5.33,0,3.37,1.45,4.89,3.67,4.89s3.24-.79,4.44-5l.39-1.33c1.62-5.46,3.78-7.21,7.71-7.21s7,3,7,8.57c0,4.5-2.12,7.68-6.39,9Z"/><path class="cls-7" d="M189.43,318.9v-4h3.14A7,7,0,0,1,189,309c0-3,1.79-5.26,5.37-5.26H207.6V308H195.52c-2.06,0-3,.92-3,2.55s1.32,3.27,3.11,4.2H207.6v4.17Z"/><path class="cls-7" d="M204.09,333.53c0-2.18-1.42-4-4.6-5.16H189.43v-4.11H207.6v3.91h-4.47c3.57,1.29,4.86,3.18,4.86,5.63Z"/><path class="cls-7" d="M189.43,345.81v-4.93l18.17-5.63v4.47L200,341.61c-2.48.63-4.57,1.06-7.08,1.65v.4c2.48.66,4.63,1.13,7.18,1.82l7.48,1.95v4.07Z"/><path class="cls-7" d="M197.6,357.86c-3.44,0-5.72,1.56-5.72,4.57,0,1.88,1.06,3.21,3.44,3.84L194.23,370c-3.48-1.12-5.27-3.61-5.27-7.64,0-5.43,3.48-8.61,9.44-8.61S208,357.13,208,362c0,4.63-3.37,8.11-9.53,8.11h-.86Zm2.75,8.21c3-.2,4.77-1.49,4.77-4s-1.86-4-4.77-4.17Z"/><path class="cls-7" d="M188.77,382.22c-4.17-1.42-5.73-3.6-5.73-7.31a13.29,13.29,0,0,1,.17-2.25l3.17-.17a12.7,12.7,0,0,0-.23,2.32c0,1.69.89,2.81,2.81,3.44l.8.27,17.84-6.16v4.4L200,378.91c-2.09.6-3.84,1-6,1.53v.33c2.05.56,3.9,1,6,1.62l7.55,2.08v4.14Z"/><path class="cls-7" d="M201.47,421.35c-3.11-.3-6.09-1.33-7.74-2.85-1.49,1.29-1.79,2.35-1.75,4.63l-3-.82v-1.13c0-2.78.63-4,2.15-5.39A9.87,9.87,0,0,1,189,409c0-5.1,3.08-8.6,7.72-8.6,3.54,0,5.75,1.72,7.48,5.46a8.54,8.54,0,0,1,5.16-1.89c3.34,0,5.79,2.62,5.79,6.49s-2.05,6.32-5.49,6.32c-3.18,0-5.17-1.79-6.42-6.09a82.59,82.59,0,0,0-7.45,5.66,13.77,13.77,0,0,0,6.49,1.49Zm-4.26-17.08a5.27,5.27,0,0,0-5.3,5.56,5.9,5.9,0,0,0,1.32,4,73.93,73.93,0,0,1,8.74-6.58A4.92,4.92,0,0,0,197.21,404.27Zm12.44,8.8a2.53,2.53,0,0,0,2.68-2.61,2.75,2.75,0,0,0-2.88-2.75,7.17,7.17,0,0,0-4.1,1.59C206.31,412.15,207.6,413.07,209.65,413.07Z"/><path class="cls-7" d="M215.11,445.45c0,6.32-2.61,9.16-7.35,9.16s-7.54-3.27-7.54-9.43v-4.33H189.43v-4.47h25.68Zm-11.55-4.6v4.2c0,3.41,1.56,5.06,4.17,5.06s4-1.49,4-4.9v-4.36Z"/><path class="cls-7" d="M189.43,463.09v-4.17h26.14v4.17Z"/><path class="cls-7" d="M203,467.92c3.28.93,5,3.58,5,7.52,0,4.7-2,7.05-6,7.05h-7.21a49.67,49.67,0,0,0-5.36.29v-3.84c.79-.13,1.32-.19,2.38-.29a6.82,6.82,0,0,1-2.81-5.73c0-3.34,2.08-5.59,5.39-5.59s5.23,2,6,5.92a33.83,33.83,0,0,1,.53,5.2h1c2.28,0,3.21-1,3.21-3.15a3.45,3.45,0,0,0-3.18-3.47Zm-4.7,10.53a18.32,18.32,0,0,0-.53-4.17c-.46-2-1.46-3-3.08-3s-2.74,1-2.74,2.91a5,5,0,0,0,3,4.24Z"/><path class="cls-7" d="M204.42,491.76a7.38,7.38,0,0,1,3.57,5.95c0,3-2,5.2-5.46,5.2h-13.1v-4.27h11.95c2.08,0,3-.89,3-2.52,0-1.45-1.19-3.11-3.08-4.23H189.43v-4.17H207.6v4Z"/><path class="cls-7" d="M204.42,512.21a7.41,7.41,0,0,1,3.57,6c0,3-2,5.2-5.46,5.2h-13.1V519.1h11.95c2.08,0,3-.9,3-2.52,0-1.46-1.19-3.11-3.08-4.24H189.43v-4.17H207.6v4Z"/><path class="cls-7" d="M189.43,532.77V528.6H207.6v4.17Zm21.41.16v-4.5h4.27v4.5Z"/><path class="cls-7" d="M204.42,542.14a7.38,7.38,0,0,1,3.57,6c0,3-2,5.2-5.46,5.2h-13.1V549h11.95c2.08,0,3-.89,3-2.52,0-1.45-1.19-3.11-3.08-4.23H189.43V538.1H207.6v4Z"/><path class="cls-7" d="M206.77,573.94c0-1.82-.26-2.48-.93-3.24a5.26,5.26,0,0,1-3.64,1.49c-3.77,0-6-2.94-6-7.15a9.29,9.29,0,0,1,.3-2.35c-.4-.79-1-1.32-1.59-1.32s-1.12.43-1.32,2.51l-.33,4.11c-.47,4.76-2.06,6.29-4.7,6.29-3.18,0-5.53-3.21-5.53-9.14,0-5.26,1.79-8.17,4.4-8.17,1.59,0,2.81,1.32,3.54,3.34.37-1.66,1.29-2.55,2.62-2.55s2.55.83,3.77,2.78a5.43,5.43,0,0,1,4.8-2.58c3.51,0,5.82,2.94,5.82,7.12a8.36,8.36,0,0,1-.86,3.87c2.16,1.19,3,2.61,3,5.26Zm-16.28-11.12c-.5-1.55-1.36-2.44-2.49-2.44-1.58,0-2.51,2-2.51,5,0,3.54,1.12,5.3,2.42,5.3s1.81-.6,2.11-3.34Zm11.75-1.05c-2.35,0-3.58,1.39-3.58,3.31a3.2,3.2,0,0,0,3.54,3.31,3.31,3.31,0,1,0,0-6.62Z"/></g><g class="cls-10"><path class="cls-7" d="M496.8,1054.11c0,6.16-3.77,9.33-9.69,9.33s-9.8-3.07-9.8-9.33V1037.3h4.47v16.75c0,4.2,2,6,5.42,6s5.43-1.79,5.43-6V1037.3h4.17Z"/><path class="cls-7" d="M507.4,1063h-4.5V1037.3h4.5Z"/><path class="cls-7" d="M531.59,1037.3c7.65,0,12.22,4,12.22,12.67s-5.1,13-12.81,13h-8V1037.3Zm-4.17,22.24h3.48c5,0,8.17-2.85,8.17-9.53s-3-9.27-7.94-9.27h-3.71Z"/><path class="cls-7" d="M551.12,1054.81c0,3.44,1.56,5.72,4.57,5.72,1.89,0,3.21-1.06,3.84-3.44l3.77,1.09c-1.12,3.48-3.6,5.26-7.64,5.26-5.43,0-8.61-3.47-8.61-9.43s3.35-9.6,8.24-9.6c4.64,0,8.11,3.38,8.11,9.54v.86Zm8.21-2.75c-.2-3-1.49-4.77-4-4.77s-4,1.86-4.17,4.77Z"/><path class="cls-7" d="M576.78,1050.17c-.47-2-1.63-2.91-3.25-2.91-1.78,0-2.84.86-2.84,2,0,1.43.59,2,3.24,2.72l1.52.39c4.14,1.1,5.63,2.59,5.63,5.53,0,3.24-2.42,5.59-7.35,5.59-3.84,0-6.42-1.35-7.58-4.53l3.87-1.36a3.84,3.84,0,0,0,3.81,3c2.38,0,3.31-1,3.31-2.35,0-1.49-.63-1.89-3.51-2.72l-1.52-.43c-3.94-1-5.33-2.48-5.33-5.52s2.38-5.17,6.82-5.17c3.81,0,6.12,1.69,7.11,4.64Z"/><path class="cls-7" d="M589.55,1041.57h-4.5v-4.27h4.5Zm-.16,21.41h-4.17v-18.17h4.17Z"/><path class="cls-7" d="M610.11,1045.64c-1.82,0-2.49.26-3.25.93a5.26,5.26,0,0,1,1.49,3.64c0,3.77-2.94,6-7.14,6a9.31,9.31,0,0,1-2.36-.3c-.79.4-1.32,1-1.32,1.59s.43,1.12,2.52,1.32l4.1.33c4.77.47,6.29,2,6.29,4.7,0,3.18-3.21,5.53-9.14,5.53-5.26,0-8.17-1.79-8.17-4.4,0-1.59,1.32-2.82,3.34-3.54-1.65-.37-2.55-1.3-2.55-2.62s.83-2.55,2.78-3.77a5.43,5.43,0,0,1-2.58-4.8c0-3.51,3-5.83,7.12-5.83a8.49,8.49,0,0,1,3.87.86c1.19-2.15,2.61-3,5.26-3ZM599,1061.92c-1.56.5-2.45,1.36-2.45,2.48,0,1.59,2,2.52,5,2.52,3.54,0,5.29-1.13,5.29-2.42s-.59-1.82-3.34-2.11Zm-1.06-11.75c0,2.35,1.39,3.58,3.31,3.58a3.2,3.2,0,0,0,3.31-3.54,3.31,3.31,0,1,0-6.62,0Z"/><path class="cls-7" d="M618,1048a7.39,7.39,0,0,1,6-3.58c3,0,5.2,2,5.2,5.47V1063h-4.27v-12c0-2.08-.89-3-2.51-3-1.46,0-3.11,1.19-4.24,3.08V1063H614v-18.17h4Z"/></g><g class="cls-10"><path class="cls-7" d="M915.91,1537c0,7.64-4,12.21-12.68,12.21s-13-5.09-13-12.81v-8h25.68Zm-22.24-4.17v3.47c0,5,2.85,8.18,9.53,8.18s9.27-3,9.27-7.94v-3.71Z"/><path class="cls-7" d="M898.4,1556.52c-3.44,0-5.72,1.56-5.72,4.57,0,1.88,1.06,3.21,3.44,3.84L895,1568.7c-3.48-1.13-5.27-3.61-5.27-7.65,0-5.42,3.48-8.6,9.44-8.6s9.59,3.34,9.59,8.24c0,4.63-3.37,8.11-9.53,8.11h-.86Zm2.75,8.21c3.05-.2,4.77-1.49,4.77-4s-1.86-4-4.77-4.17Z"/><path class="cls-7" d="M890.23,1581.58v-4.93L908.4,1571v4.47l-7.58,1.88c-2.48.63-4.57,1.06-7.08,1.66v.4c2.48.66,4.63,1.12,7.18,1.82l7.48,2v4.07Z"/><path class="cls-7" d="M898.4,1593.63c-3.44,0-5.72,1.55-5.72,4.56,0,1.89,1.06,3.21,3.44,3.84l-1.09,3.78c-3.48-1.13-5.27-3.61-5.27-7.65,0-5.43,3.48-8.6,9.44-8.6s9.59,3.34,9.59,8.24c0,4.63-3.37,8.11-9.53,8.11h-.86Zm2.75,8.2c3.05-.19,4.77-1.49,4.77-4s-1.86-4-4.77-4.17Z"/><path class="cls-7" d="M890.23,1614.28v-4.17h26.15v4.17Z"/><path class="cls-7" d="M899.33,1635c-5.89,0-9.57-3.28-9.57-8.24s3.58-8.21,9.47-8.21,9.56,3.31,9.56,8.24S905.22,1635,899.33,1635Zm0-12.18c-4.21,0-6.52,1.26-6.52,3.94s2.28,4,6.52,4,6.48-1.26,6.48-3.94S903.47,1622.82,899.3,1622.82Z"/><path class="cls-7" d="M905.72,1643.28a6,6,0,0,1,3.07,5.1c0,4-3.14,6.91-9.36,6.91s-9.63-3.21-9.63-7.11a5.15,5.15,0,0,1,3-4.77h-8.94v-4.14H908.4v4Zm-9.67.13c-1.92.83-3,2.15-3,3.67,0,2.19,1.92,3.94,6.32,3.94s6.22-1.62,6.22-3.7c0-1.53-1-3-3.08-3.91Z"/><path class="cls-7" d="M905.22,1663.54c2.19,1.42,3.57,3.37,3.57,5.72a4.3,4.3,0,0,1-3.54,4.47,7,7,0,0,1,3.54,5.76c0,2.94-1.95,5-5.46,5h-13.1v-4.17h11.95c2.05,0,3-.89,3-2.51,0-1.43-1.26-3-3.08-3.81H890.23v-4.1h11.95c2.08,0,3-.8,3-2.25s-1.22-3-3.08-3.94H890.23v-4.11H908.4v4Z"/><path class="cls-7" d="M898.4,1692.7c-3.44,0-5.72,1.55-5.72,4.57,0,1.88,1.06,3.21,3.44,3.84l-1.09,3.77c-3.48-1.13-5.27-3.61-5.27-7.65,0-5.43,3.48-8.6,9.44-8.6s9.59,3.34,9.59,8.24c0,4.63-3.37,8.11-9.53,8.11h-.86Zm2.75,8.21c3.05-.2,4.77-1.49,4.77-4s-1.86-4-4.77-4.17Z"/><path class="cls-7" d="M905.22,1713.22a7.41,7.41,0,0,1,3.57,6c0,3-1.95,5.2-5.46,5.2h-13.1v-4.27h11.95c2.08,0,3-.9,3-2.52,0-1.46-1.19-3.11-3.08-4.24H890.23v-4.17H908.4v4Z"/><path class="cls-7" d="M908.4,1734.61v4.07h-3v-4.07h-10c-1.82,0-2.61.72-2.61,2.25A9.79,9.79,0,0,0,893,1739l-3-.16a21.26,21.26,0,0,1-.2-3.24c0-3.45,1.49-5.07,4.83-5.07h10.72v-2.71h3v2.71h5l.92,4.11Z"/></g><g class="cls-10"><path class="cls-7" d="M890.23,2011.27v-4.5h25.68v4.5Z"/><path class="cls-7" d="M905.22,2021c2.19,1.42,3.57,3.38,3.57,5.73a4.32,4.32,0,0,1-3.54,4.47,7,7,0,0,1,3.54,5.75c0,3-1.95,5-5.46,5h-13.1v-4.17h11.95c2.05,0,3-.89,3-2.52,0-1.42-1.26-2.94-3.08-3.8H890.23v-4.11h11.95c2.08,0,3-.79,3-2.25s-1.22-3-3.08-3.94H890.23V2017H908.4v4Z"/><path class="cls-7" d="M905.72,2051.19a6,6,0,0,1,3.07,5.1c0,4-3.14,6.91-9.36,6.91s-9.63-3.21-9.63-7.11a5.15,5.15,0,0,1,3-4.77h-8.94v-4.13H908.4v4Zm-9.67.13c-1.92.83-3,2.15-3,3.68,0,2.18,1.92,3.93,6.32,3.93s6.22-1.62,6.22-3.7c0-1.52-1-3-3.08-3.91Z"/><path class="cls-7" d="M904.89,2076.74c0-2.18-1.42-4-4.6-5.16H890.23v-4.1H908.4v3.9h-4.47c3.57,1.29,4.86,3.18,4.86,5.63Z"/><path class="cls-7" d="M899.33,2095.81c-5.89,0-9.57-3.28-9.57-8.24s3.58-8.21,9.47-8.21,9.56,3.31,9.56,8.24S905.22,2095.81,899.33,2095.81Zm0-12.18c-4.21,0-6.52,1.26-6.52,3.94s2.28,4,6.52,4,6.48-1.26,6.48-3.94S903.47,2083.63,899.3,2083.63Z"/><path class="cls-7" d="M890.23,2108.65v-4.93l18.17-5.62v4.46l-7.58,1.89c-2.48.63-4.57,1.06-7.08,1.65v.4c2.48.66,4.63,1.13,7.18,1.82l7.48,1.95v4.08Z"/><path class="cls-7" d="M898.4,2120.7c-3.44,0-5.72,1.56-5.72,4.57,0,1.89,1.06,3.21,3.44,3.84l-1.09,3.77c-3.48-1.12-5.27-3.61-5.27-7.64,0-5.43,3.48-8.61,9.44-8.61s9.59,3.34,9.59,8.24c0,4.64-3.37,8.11-9.53,8.11h-.86Zm2.75,8.21c3.05-.2,4.77-1.49,4.77-4s-1.86-4-4.77-4.17Z"/><path class="cls-7" d="M905.22,2141.16c2.19,1.42,3.57,3.38,3.57,5.72a4.3,4.3,0,0,1-3.54,4.47,7,7,0,0,1,3.54,5.76c0,2.95-1.95,5-5.46,5h-13.1v-4.17h11.95c2.05,0,3-.9,3-2.52,0-1.42-1.26-2.94-3.08-3.81H890.23v-4.1h11.95c2.08,0,3-.79,3-2.25s-1.22-3-3.08-3.94H890.23v-4.1H908.4v4Z"/><path class="cls-7" d="M898.4,2170.32c-3.44,0-5.72,1.56-5.72,4.57,0,1.89,1.06,3.21,3.44,3.84L895,2182.5c-3.48-1.12-5.27-3.61-5.27-7.64,0-5.43,3.48-8.61,9.44-8.61s9.59,3.34,9.59,8.24c0,4.63-3.37,8.11-9.53,8.11h-.86Zm2.75,8.21c3.05-.2,4.77-1.49,4.77-4s-1.86-4-4.77-4.17Z"/><path class="cls-7" d="M905.22,2190.84a7.41,7.41,0,0,1,3.57,6c0,3-1.95,5.2-5.46,5.2h-13.1v-4.27h11.95c2.08,0,3-.9,3-2.52,0-1.45-1.19-3.11-3.08-4.23H890.23v-4.17H908.4v4Z"/><path class="cls-7" d="M908.4,2212.23v4.07h-3v-4.07h-10c-1.82,0-2.61.73-2.61,2.25a9.88,9.88,0,0,0,.19,2.12l-3-.17a21.26,21.26,0,0,1-.2-3.24c0-3.44,1.49-5.07,4.83-5.07h10.72v-2.71h3v2.71h5l.92,4.11Z"/></g></svg>